<svg width="548" height="440" viewBox="0 0 548 440" fill="none" xmlns="http://www.w3.org/2000/svg">
<path d="M102 132.7C102 133.5 101.7 134.2 101.1 134.8L100.5 135.7L98.7 136.3V135.7C94.1 136.7 89.3 137.4 84.3 137.8C79.3 138.2 75.4 138.6 72.6 139C69.8 139.6 67.6 140.1 66 140.5C64.4 140.7 63 140.7 61.8 140.5C60.8 148.1 60.4 156.1 60.6 164.5C61 172.7 60.7 180.1 59.7 186.7C59.5 187.7 59.3 188.7 59.1 189.7C59.1 190.5 59.1 191.4 59.1 192.4V197.5C59.1 201.5 59.4 205.3 60 208.9H59.1C57.7 208.9 57 209.5 57 210.7L59.7 211C59.5 212.2 59.4 213 59.4 213.4C59.6 213.8 59.2 214.4 58.2 215.2L57.9 214.9C57.7 214.9 57.6 215.1 57.6 215.5L54.9 214C50.9 213.8 47.1 213.7 43.5 213.7C39.9 213.5 36.4 213.4 33 213.4C29.4 213.4 25.8 213.5 22.2 213.7C18.6 213.7 15 213.7 11.4 213.7C11.2 213.1 11 212.5 10.8 211.9C10.8 211.3 10.5 210.8 9.9 210.4C9.1 211 8.7 211.7 8.7 212.5C8.9 213.3 8.8 214.1 8.4 214.9C7.6 214.7 6.8 214.4 6 214C5.4 213.6 5.1 213.1 5.1 212.5C5.1 211.9 5.5 211.5 6.3 211.3C7.3 210.9 7.8 209.4 7.8 206.8C7.4 206.4 7 206.1 6.6 205.9C6.2 205.7 6 205.4 6 205L6.6 204.4C7 204.4 7.3 202.4 7.5 198.4C7.9 194.2 8.2 188.8 8.4 182.2C8.8 175.6 9 168.1 9 159.7C9.2 151.3 9.4 142.9 9.6 134.5C9.8 125.9 9.9 117.6 9.9 109.6C10.1 101.6 10.3 94.7 10.5 88.9L9.9 86.5C8.1 98.3 7.2 109.9 7.2 121.3V126.7C7.2 127.5 7.2 128.3 7.2 129.1C7.2 129.9 7.3 130.7 7.5 131.5L6.9 132.4C6.9 132.8 7 133.3 7.2 133.9C7.6 134.5 7.8 135.2 7.8 136V136.3C7.6 136.3 7.2 135.7 6.6 134.5C6.2 133.1 6 130.3 6 126.1C6 122.7 6.1 118.3 6.3 112.9C6.7 107.5 7 101.7 7.2 95.5C7.6 89.1 7.9 82.6 8.1 76C8.5 69.2 8.7 62.8 8.7 56.8C8.7 42.4 8.1 27.7 6.9 12.7L4.5 11.5C4.7 10.9 5 10.6 5.4 10.6C5.8 10.6 6.2 10.7 6.6 10.9C7 11.1 7.4 11.2 7.8 11.2C8.4 11.2 8.8 10.4 9 8.8C9.4 7.19999 10 6.09999 10.8 5.49998V5.8C12.4 5.8 13.8 6 15 6.39999C16.2 6.59999 17.6 6.69999 19.2 6.69999H21.6C20.8 7.09999 19.9 7.3 18.9 7.3C18.1 7.3 17.5 7.49999 17.1 7.89999C18.5 8.09999 19.8 8.19999 21 8.19999C22.4 8.19999 23.8 8.19999 25.2 8.19999C34.2 8.19999 42.1 8.19999 48.9 8.19999C55.7 7.99999 62 7.79999 67.8 7.59999C73.8 7.4 79.5 7.19999 84.9 6.99998C90.5 6.59999 96.4 6.29999 102.6 6.09999L136.8 6.99998C137.2 6.59999 137.3 6.19999 137.1 5.8C137.1 5.19999 137.5 4.69999 138.3 4.29998L141.3 11.2L142.5 11.5C142.5 13.1 142.1 13.7 141.3 13.3C140.7 12.9 140.4 13.2 140.4 14.2L141 16.6L140.7 46.3C140.3 46.7 140.1 47.4 140.1 48.4L142.5 49V49.9C142.5 51.7 142.2 53 141.6 53.8C141 54.4 140.3 54.9 139.5 55.3L137.4 56.2C136.8 56.4 136.4 56.9 136.2 57.7C135.8 56.5 135.3 55.5 134.7 54.7C134.1 53.9 133 53.5 131.4 53.5C129 53.5 127.4 54.1 126.6 55.3C124.2 55.9 122.2 56.3 120.6 56.5C119.2 56.5 117.2 56.6 114.6 56.8C112 56.8 108.3 56.9 103.5 57.1C98.7 57.3 91.8 57.8 82.8 58.6C78.8 58 75.3 57.7 72.3 57.7C68.7 57.7 66 58.1 64.2 58.9C63.8 58.9 63.5 58.9 63.3 58.9C63.1 58.7 62.8 58.6 62.4 58.6C61.8 58.6 61.4 59.1 61.2 60.1C61.2 61.1 61.2 61.8 61.2 62.2V64.6C61.2 66.2 61.1 67.2 60.9 67.6L60.3 67C60.1 67.2 59.8 68.6 59.4 71.2C59.2 73.8 59.1 76.4 59.1 79C59.1 82.8 61.2 85.3 65.4 86.5C69.8 87.5 74.6 88 79.8 88C82.8 88 85.6 87.9 88.2 87.7C91 87.5 93.5 87.4 95.7 87.4C99.7 87.4 101.7 87.9 101.7 88.9C101.7 89.3 101.6 89.6 101.4 89.8C101.4 90.2 101.6 90.4 102 90.4C102.4 90.4 102.9 90.2 103.5 89.8C104.1 89.4 104.6 89.2 105 89.2C105.4 89.2 105.6 89.5 105.6 90.1V91.3C105.6 91.7 105.7 92 105.9 92.2C106.1 92.2 106.3 92.4 106.5 92.8C105.7 93.6 104.7 93.9 103.5 93.7C102.3 93.3 101.2 93.5 100.2 94.3L101.7 125.8C101.7 126 102.2 126.3 103.2 126.7V127.6C102.2 128.2 101.7 128.9 101.7 129.7C101.7 130.1 101.7 130.6 101.7 131.2C101.9 131.6 102 132.1 102 132.7ZM131.4 29.8C131.4 29 131.4 28.5 131.4 28.3V26.5V18.7C131.4 17.9 131.3 17.1 131.1 16.3C131.1 15.5 130.5 15.1 129.3 15.1L129.6 16C129.6 16.2 129.5 16.3 129.3 16.3C128.7 16.3 127.5 15.9 125.7 15.1H123.3C123.1 15.1 122.5 15.1 121.5 15.1C120.7 14.9 119.4 14.8 117.6 14.8C116 14.8 113.9 14.9 111.3 15.1C108.9 15.1 106 15.1 102.6 15.1C89.2 15.1 82.4 15 82.2 14.8V13.3L79.5 14.2V14.8C79.3 15 79.1 15.1 78.9 15.1C78.5 15.1 78.2 15 78 14.8C77.8 14.6 77.5 14.5 77.1 14.5C76.5 14.5 76.1 14.8 75.9 15.4C64.9 15.6 56 15.9 49.2 16.3C42.6 16.7 38 17.1 35.4 17.5C34 16.7 32.5 16.3 30.9 16.3C29.5 16.3 28.2 16.5 27 16.9C25.8 17.3 24.4 17.5 22.8 17.5C22.4 17.5 22.1 17.5 21.9 17.5C21.7 17.3 21.4 17.2 21 17.2C21.2 18.2 21.4 19.2 21.6 20.2C21.8 21 21.9 21.9 21.9 22.9C21.9 23.9 21.8 24.5 21.6 24.7C20.8 24.7 20 24.3 19.2 23.5L20.1 22.9C20.5 22.9 20.7 22.8 20.7 22.6L20.4 21.7C20.4 21.3 20.5 21.1 20.7 21.1C20.3 20.5 19.8 19.7 19.2 18.7C18.8 17.5 18.2 16.1 17.4 14.5C16.8 31.5 16.3 48.2 15.9 64.6C15.7 81 15.4 97.3 15 113.5C15.4 117.7 15.7 121.9 15.9 126.1C16.1 130.1 16.2 135.4 16.2 142C16.2 148.6 15.9 156.4 15.3 165.4C14.9 174.4 14.7 183.4 14.7 192.4V199C14.7 200 14.7 201.1 14.7 202.3C14.7 203.3 14.8 204.3 15 205.3L26.4 206.5V207.1H27C27.8 207.1 28.3 207.2 28.5 207.4L29.4 208.6L40.8 207.7C41.4 207.7 45.4 206.9 52.8 205.3C54 201.5 54.5 197.4 54.3 193C54.1 188.6 54.4 184.5 55.2 180.7H55.5C55.5 180.3 55.3 180.1 54.9 180.1C54.7 179.9 54.6 179.6 54.6 179.2L55.2 178.6C55.4 178.6 55.6 178.7 55.8 178.9V178C55.8 176.8 55.7 175.9 55.5 175.3C55.3 174.7 55.2 174.2 55.2 173.8V173.2H55.8C55.6 173 55.5 172.2 55.5 170.8C55.1 146.6 54.8 134.3 54.6 133.9V132.4C54.6 132 54.8 131.6 55.2 131.2C55 131.4 54.5 131.6 53.7 131.8C52.9 131.8 52.4 131.8 52.2 131.8C51.2 131.8 50.6 131.4 50.4 130.6C51 129.4 52.2 128.8 54 128.8C54 128.8 55 129 57 129.4C58 129.2 58.5 128.5 58.5 127.3C58.7 125.9 59.1 125.2 59.7 125.2C60.3 125.2 60.6 125.5 60.6 126.1C60.8 126.5 61.1 127 61.5 127.6C62.1 128 63.2 128.5 64.8 129.1C66.4 129.5 69.1 129.7 72.9 129.7C75.7 129.7 78.9 129.5 82.5 129.1C86.3 128.7 90.4 127.9 94.8 126.7C94.2 125.3 93.9 123.7 93.9 121.9C93.9 120.9 93.9 120.1 93.9 119.5C94.1 118.7 94.2 117.4 94.2 115.6C94.2 108.4 94.1 103.2 93.9 100C93.7 96.8 93.4 94.6 93 93.4C90 92.8 87 92.3 84 91.9C81.2 91.5 78.3 91.3 75.3 91.3C72.9 91.3 70.4 91.5 67.8 91.9C65.4 92.1 63 92.6 60.6 93.4C60.4 93.2 59.8 93.1 58.8 93.1H58.2C57.4 93.1 56.9 93 56.7 92.8C56.1 93.2 55.8 93.9 55.8 94.9C55.8 95.7 55.5 96.4 54.9 97L54 96.1C54.2 95.9 54.3 95.5 54.3 94.9C54.3 93.9 53.7 93.3 52.5 93.1C51.3 92.7 50.7 92 50.7 91C51.3 90.4 52 90.1 52.8 90.1H53.7V87.7C52.9 86.9 52.5 86.4 52.5 86.2L52.8 85.9H52.5L53.1 85.3C53.1 84.9 52.7 84.7 51.9 84.7C52.3 83.1 52.5 81.5 52.5 79.9C52.5 78.1 52.9 76.5 53.7 75.1L54.6 82.6L54.3 60.1C53.7 59.9 53.2 59.4 52.8 58.6C52.4 57.8 52 57 51.6 56.2L51 53.8C50.8 53.4 50.7 53.2 50.7 53.2C50.7 52 51.3 51 52.5 50.2C53.9 49.4 54.8 48.5 55.2 47.5L55.8 49H56.4C58 49 59.2 48.6 60 47.8C60.4 48 60.7 48.3 60.9 48.7C61.1 49.1 61.4 49.4 61.8 49.6L71.4 49C79.8 48.6 85.3 48.3 87.9 48.1C90.5 47.9 92.3 47.5 93.3 46.9L94.5 48.1C96.3 46.9 98.5 46.3 101.1 46.3C102.3 46.3 103.4 46.6 104.4 47.2C105.6 47.8 106.7 48.1 107.7 48.1C108.1 48.1 108.4 47.9 108.6 47.5C108.8 46.9 109.1 46.6 109.5 46.6C109.7 46.6 110 46.9 110.4 47.5C110.4 46.7 110.7 46.3 111.3 46.3H112.8C113.2 46.3 113.4 46.2 113.4 46C113.6 46.2 113.7 46.6 113.7 47.2C113.5 47.4 113.2 47.5 112.8 47.5V48.1C113.2 47.9 114.6 47.8 117 47.8C118.6 47.8 120.2 47.9 121.8 48.1C123.6 48.1 125.4 48.1 127.2 48.1C128.4 48.1 129.5 48 130.5 47.8C131.7 47.4 132.3 46.5 132.3 45.1C132.3 44.9 132.2 43.7 132 41.5C131.8 39.3 131.5 36.2 131.1 32.2C131.3 31.2 131.4 30.4 131.4 29.8ZM8.7 76.6C8.7 77.8 8.7 79.2 8.7 80.8C9.1 80 9.3 78.9 9.3 77.5C9.3 77.3 9.3 76.2 9.3 74.2C9.3 72 9.2 70.9 9 70.9V73.3C9 74.3 8.9 75.4 8.7 76.6ZM56.1 91.6L56.7 92.2V91.9C56.7 91.7 56.6 91.6 56.4 91.6H56.1ZM10.2 85.9H10.5V83.8L10.2 85.9ZM244.999 187.6C245.999 193.6 247.499 198.9 249.499 203.5C249.899 205.3 250.399 207 250.999 208.6C251.599 210.2 252.199 211.9 252.799 213.7C252.399 214.9 251.999 215.5 251.599 215.5C250.799 215.5 249.199 215.4 246.799 215.2C244.399 215 239.499 214.7 232.099 214.3C227.699 214.1 223.899 214 220.699 214C217.499 214 214.899 213.7 212.899 213.1C211.699 209.9 210.399 206.3 208.999 202.3C207.799 198.3 206.499 194.3 205.099 190.3C203.899 186.1 202.599 182.1 201.199 178.3C199.999 174.3 198.799 170.8 197.599 167.8L196.399 166.6C193.999 166.8 191.499 166.9 188.899 166.9C186.499 166.7 184.199 167.1 181.999 168.1C183.999 168.7 185.899 169.1 187.699 169.3C189.699 169.3 191.699 169.5 193.699 169.9C192.899 170.1 192.099 170.2 191.299 170.2C190.899 170.2 190.699 170.3 190.699 170.5C189.499 170.5 188.199 170.4 186.799 170.2C185.599 169.8 184.399 169.6 183.199 169.6C180.399 169.6 178.599 170.5 177.799 172.3C177.199 175.1 176.499 178.3 175.699 181.9C174.899 185.5 173.999 189.2 172.999 193C172.199 196.6 171.399 200.2 170.599 203.8C169.799 207.4 169.099 210.5 168.499 213.1C167.499 214.1 166.199 214.6 164.599 214.6C163.599 214.6 162.499 214.4 161.299 214C160.099 213.8 158.999 213.7 157.999 213.7C156.799 213.7 156.099 213.8 155.899 214L155.299 213.4C150.299 213.6 145.199 213.7 139.999 213.7C134.799 213.5 129.799 213.7 124.999 214.3C124.799 213.9 124.499 213.7 124.099 213.7C123.699 213.7 123.499 213.5 123.499 213.1C123.499 212.7 123.499 212.6 123.499 212.8C123.699 213 123.999 212.5 124.399 211.3L125.599 209.5C124.999 208.9 124.699 208.4 124.699 208C124.699 207.4 124.999 206.8 125.599 206.2C126.199 205.6 126.599 204.9 126.799 204.1C128.399 194.5 130.199 184.2 132.199 173.2C134.399 162.2 136.199 151.9 137.599 142.3C136.999 142.3 136.199 144.5 135.199 148.9C134.199 153.1 133.099 158.2 131.899 164.2C130.699 170.2 129.399 176.5 127.999 183.1C126.799 189.5 125.599 194.9 124.399 199.3C127.799 181.7 131.099 163.4 134.299 144.4C137.499 125.2 141.299 106.8 145.699 89.2C145.699 90.6 145.599 91.6 145.399 92.2V95.8C148.199 84.4 150.899 73.2 153.499 62.2C156.299 51.2 158.799 40 160.999 28.6C160.599 29 160.299 29.6 160.099 30.4C159.899 31 159.599 31.6 159.199 32.2C159.399 30 159.999 27.5 160.999 24.7C161.999 21.7 163.199 18.8 164.599 16C165.999 13.2 167.499 10.6 169.099 8.19999C170.899 5.79999 172.699 3.99999 174.499 2.79998H179.599C187.799 2.79998 193.599 2.59999 196.999 2.19999C200.599 1.8 203.599 1.6 205.999 1.6C208.399 11.2 210.699 20.6 212.899 29.8C215.099 38.8 216.999 48.1 218.599 57.7C218.599 59.7 219.199 61.4 220.399 62.8C221.599 64 222.199 65.4 222.199 67C221.999 67.2 221.899 67.4 221.899 67.6C221.899 67.8 221.799 68 221.599 68.2C221.599 68.4 221.599 68.7 221.599 69.1C223.399 75.3 224.799 81.7 225.799 88.3C226.799 94.7 228.399 100.9 230.599 106.9C231.599 112.9 232.799 119.1 234.199 125.5C235.799 131.7 236.899 137.8 237.499 143.8C239.099 147 239.899 150.6 239.899 154.6C239.899 158.4 240.499 162 241.699 165.4C242.699 165.8 243.199 166.4 243.199 167.2C243.199 168 243.299 168.8 243.499 169.6C242.699 169.6 242.299 170 242.299 170.8C243.299 175.8 244.199 181.4 244.999 187.6ZM235.999 208.3C238.399 208.3 240.999 208.2 243.799 208H246.199L244.699 199C243.699 192.8 242.299 186.7 240.499 180.7C238.899 174.7 237.199 169.1 235.399 163.9C233.799 158.7 232.399 154.1 231.199 150.1C229.999 146.1 229.399 143 229.399 140.8V139.9C229.399 138.5 229.199 136.9 228.799 135.1C228.399 133.3 227.799 130.9 226.999 127.9C226.199 124.7 225.099 120.8 223.699 116.2C222.299 111.4 220.699 105.2 218.899 97.6C218.699 97.2 218.599 96.9 218.599 96.7C218.599 96.3 218.499 95.9 218.299 95.5C218.699 95.5 221.399 102.8 226.399 117.4C226.799 118 227.199 118.7 227.599 119.5C228.199 120.1 228.499 120.8 228.499 121.6V122.5H227.899C228.299 123.5 228.499 124.4 228.499 125.2C228.699 126 228.999 126.8 229.399 127.6C229.599 127.6 229.899 127.4 230.299 127C229.899 126.6 229.699 126.3 229.699 126.1C229.699 125.7 229.899 125.4 230.299 125.2C230.699 125 230.899 124.7 230.899 124.3C229.299 118.5 227.999 112.4 226.999 106C225.999 99.4 224.599 93.4 222.799 88V86.2C222.799 81.6 221.699 77.1 219.499 72.7C217.499 68.1 216.299 63.7 215.899 59.5V60.7C215.899 60.9 216.099 61.8 216.499 63.4C215.899 64.6 215.599 65.6 215.599 66.4C215.599 68 215.899 69.5 216.499 70.9C217.099 72.3 217.399 73.7 217.399 75.1C217.399 75.7 217.199 76 216.799 76L216.499 75.1C216.499 74.7 216.399 74.5 216.199 74.5L215.599 76.6C215.199 70.2 213.899 62.4 211.699 53.2C209.499 43.8 207.399 33.7 205.399 22.9L205.699 23.2L204.199 12.1C204.199 9.89999 203.299 8.8 201.499 8.8C200.899 8.8 200.199 8.89999 199.399 9.09999C198.799 9.09999 198.099 9.09999 197.299 9.09999C196.299 9.09999 195.599 8.89999 195.199 8.49998C195.799 7.89999 196.099 7.49999 196.099 7.3C194.899 7.3 192.399 7.3 188.599 7.3C184.999 7.3 179.999 7.4 173.599 7.59999C172.999 12.4 172.199 16.7 171.199 20.5C170.199 24.1 168.999 28 167.599 32.2C166.199 36.4 165.099 40.6 164.299 44.8C163.499 49 162.699 53.2 161.899 57.4C161.099 61.6 160.199 65.7 159.199 69.7C158.199 73.7 156.799 77.6 154.999 81.4H155.899C155.499 84.2 155.099 87.2 154.699 90.4C154.299 93.4 153.299 96 151.699 98.2C152.099 100.2 152.299 101.4 152.299 101.8C152.299 102.4 151.999 103.8 151.399 106C150.799 108 150.099 110.3 149.299 112.9C148.699 115.5 147.999 118 147.199 120.4C146.599 122.6 146.199 124.2 145.999 125.2C145.399 128 144.799 131 144.199 134.2C143.599 137.2 142.799 139.7 141.799 141.7C141.799 142.1 141.799 142.5 141.799 142.9C141.999 143.3 142.099 143.6 142.099 143.8C142.099 144.2 142.199 144.4 142.399 144.4C142.399 146 142.099 147.6 141.499 149.2C140.899 150.6 140.599 152 140.599 153.4V154.3C141.399 153.3 141.799 152.3 141.799 151.3C141.799 150.1 142.399 149.3 143.599 148.9C143.399 153.9 142.699 159 141.499 164.2C140.499 169.4 139.299 174.7 137.899 180.1C136.499 185.3 135.099 190.5 133.699 195.7C132.299 200.7 131.099 205.6 130.099 210.4L131.299 211C137.099 210 142.699 209.1 148.099 208.3C153.699 207.3 159.199 206.2 164.599 205C165.999 202.8 167.199 200 168.199 196.6C169.199 193.2 170.099 189.7 170.899 186.1C171.699 182.5 172.399 179 172.999 175.6C173.799 172 174.699 169 175.699 166.6L174.199 164.2C177.599 162.2 181.699 161.3 186.499 161.5C191.299 161.7 195.799 161.6 199.999 161.2C200.399 161.6 200.999 162.1 201.799 162.7C202.799 163.1 203.299 163.8 203.299 164.8L202.699 166C203.899 168.8 204.999 172 205.999 175.6C206.999 179.2 207.999 182.9 208.999 186.7C209.999 190.5 211.099 194.1 212.299 197.5C213.499 200.9 214.899 203.8 216.499 206.2H215.299V208.6C215.699 208.4 216.099 208.3 216.499 208.3C217.099 208.1 217.599 207.8 217.999 207.4C218.799 208 222.699 208.3 229.699 208.3C231.699 208.3 233.799 208.3 235.999 208.3ZM187.999 65.5C188.999 65.5 189.799 67.1 190.399 70.3C193.599 83.7 195.699 95.1 196.699 104.5C197.699 113.9 199.099 121.6 200.899 127.6L199.999 128.2C199.399 128.2 198.799 128.3 198.199 128.5C197.599 128.5 196.999 128.5 196.399 128.5C194.199 128.5 191.699 128.4 188.899 128.2C186.099 128 183.599 127.9 181.399 127.9H177.499C176.699 127.9 176.299 127.2 176.299 125.8C176.299 124.8 176.399 124.2 176.599 124C176.999 123.6 177.199 123.2 177.199 122.8V121.6C177.199 121 177.299 120.6 177.499 120.4L177.799 120.7C178.199 119.1 178.499 115.5 178.699 109.9C179.099 104.3 180.399 97 182.599 88C183.799 83 184.399 79.4 184.399 77.2V75.7C184.399 74.7 185.099 73.5 186.499 72.1C186.299 71.9 186.199 71.3 186.199 70.3C186.199 69.5 186.299 68.5 186.499 67.3C186.899 66.1 187.399 65.5 187.999 65.5ZM193.099 88.3C192.299 83.5 190.999 79.6 189.199 76.6V75.1C189.199 74.1 188.899 73.4 188.299 73C187.899 74 187.299 75 186.499 76C185.899 77 185.599 78.3 185.599 79.9V82.3C185.599 83.5 185.299 86.1 184.699 90.1C184.299 93.9 183.699 98 182.899 102.4C182.299 106.8 181.699 111 181.099 115C180.499 118.8 180.099 121.3 179.899 122.5L179.299 121.9L178.699 123.1L179.299 122.8L180.499 126.1H197.599L198.799 125.2C197.799 123.4 197.099 120.5 196.699 116.5C196.299 112.3 195.799 107.8 195.199 103C194.799 98 194.099 93.1 193.099 88.3ZM140.299 120.4C139.299 127.4 137.999 134.4 136.399 141.4L137.899 141.1C139.499 134.3 140.899 127.3 142.099 120.1C143.299 112.7 144.399 105.7 145.399 99.1C143.199 106.1 141.499 113.2 140.299 120.4ZM124.099 200.5C124.099 200.9 123.999 201.3 123.799 201.7C123.999 201.3 124.099 200.9 124.099 200.5C124.099 200.1 124.199 199.7 124.399 199.3C124.199 199.7 124.099 200.1 124.099 200.5ZM406.877 212.2C406.877 212.4 407.077 212.6 407.477 212.8L404.777 213.7H404.177L404.477 213.1C398.877 213.1 393.377 213.3 387.977 213.7C382.777 214.1 377.277 214.3 371.477 214.3H366.377C363.577 214.3 360.777 214 357.977 213.4C355.377 212.8 354.077 211.4 354.077 209.2C354.077 208.4 354.277 208 354.677 208L355.877 208.6L356.477 208C355.477 206.4 354.477 204.8 353.477 203.2C352.477 201.4 351.477 199.5 350.477 197.5L344.177 185.8C341.977 181.8 339.977 177.9 338.177 174.1C336.577 170.1 335.077 166.3 333.677 162.7L315.377 136.6V151C315.377 160.6 315.477 170.2 315.677 179.8C315.877 189.2 316.477 198.2 317.477 206.8L316.877 207.1L319.877 209.8C318.477 209.8 317.777 210.3 317.777 211.3C317.777 212.3 317.377 213.1 316.577 213.7C316.177 213.3 315.777 213.1 315.377 213.1C314.977 213.1 314.677 213.2 314.477 213.4C314.477 213.6 314.277 213.7 313.877 213.7C313.677 213.7 313.277 213.4 312.677 212.8C308.677 213 304.777 213.3 300.977 213.7C297.377 213.9 293.577 214 289.577 214H285.977C285.577 214 284.677 214 283.277 214C281.877 213.8 280.077 213.6 277.877 213.4H274.877C274.077 213.4 273.377 213.3 272.777 213.1C272.177 212.9 271.577 212.8 270.977 212.8C270.177 212.8 269.777 213 269.777 213.4V213.7L269.477 213.4C269.277 213.2 269.177 213 269.177 212.8L268.577 214C268.177 213.8 267.977 213.6 267.977 213.4C267.977 213 267.777 212.7 267.377 212.5L266.177 213.4C265.777 211.8 265.577 211 265.577 211C265.977 208.4 266.277 206.3 266.477 204.7C266.877 202.9 267.077 201.5 267.077 200.5C267.077 198.3 266.877 196.4 266.477 194.8C266.077 193 265.877 191 265.877 188.8L266.177 189.1C266.377 189.1 266.477 189.3 266.477 189.7C266.877 189.3 267.077 188.7 267.077 187.9V178C267.077 172.4 267.177 167.2 267.377 162.4C267.577 157.4 267.677 152.7 267.677 148.3C267.677 142.5 267.477 135.4 267.077 127C266.877 118.6 266.577 109.7 266.177 100.3C265.977 90.9 265.777 81.3 265.577 71.5C265.377 61.7 265.277 52.4 265.277 43.6C265.277 38.8 265.277 33.2 265.277 26.8C265.277 20.4 265.377 13.1 265.577 4.89999L269.177 0.699992L270.677 3.39999C271.077 3.59999 271.977 3.69999 273.377 3.69999H275.777C279.577 3.69999 283.177 3.39999 286.577 2.79998C290.177 2.19999 293.977 1.59999 297.977 0.999989L297.377 1.6C300.977 2.19999 304.777 2.49999 308.777 2.49999C312.377 2.49999 315.977 2.39999 319.577 2.19999C323.177 1.99999 326.777 1.89999 330.377 1.89999H334.577C336.777 1.89999 338.177 1.99999 338.777 2.19999L339.677 1.29998C339.077 1.29998 338.477 1.29998 337.877 1.29998C337.477 1.09999 336.977 0.89999 336.377 0.699992C344.977 1.49999 353.077 3.39999 360.677 6.39999C368.477 9.39999 375.977 13 383.177 17.2L382.877 17.8C387.877 21.2 391.577 25.6 393.977 31C396.377 36.2 398.477 41.4 400.277 46.6C400.477 46.4 400.577 45.9 400.577 45.1C401.177 49.7 401.477 55.1 401.477 61.3C401.477 66.7 401.077 72 400.277 77.2C399.677 82.4 398.477 87.4 396.677 92.2C395.077 96.8 392.777 101.1 389.777 105.1C386.777 109.1 382.877 112.6 378.077 115.6C374.277 117.4 370.277 118.8 366.077 119.8C361.877 120.6 357.777 121.7 353.777 123.1C355.377 126.1 357.077 129.1 358.877 132.1C360.877 135.1 362.877 138 364.877 140.8L376.877 157.9C380.877 163.7 384.777 169.5 388.577 175.3C392.377 181.1 395.577 187.1 398.177 193.3C398.577 194.3 398.777 195.2 398.777 196C398.977 196.6 399.277 197.5 399.677 198.7C400.077 199.9 400.777 201.5 401.777 203.5C402.777 205.5 404.277 208.1 406.277 211.3V211.9C406.677 211.9 406.877 212 406.877 212.2ZM384.677 211C387.877 210.6 390.877 210.2 393.677 209.8L393.077 208.6H394.277C395.277 208.6 396.177 208.8 396.977 209.2C397.777 209.6 398.677 209.8 399.677 209.8C400.477 209.8 401.077 209.6 401.477 209.2C401.077 208.4 400.477 208.1 399.677 208.3C399.077 208.5 398.777 208.4 398.777 208C398.777 207.8 399.077 207.4 399.677 206.8C399.677 206.4 399.377 205.7 398.777 204.7C398.177 203.5 397.577 202.3 396.977 201.1C396.377 199.7 395.777 198.5 395.177 197.5C394.577 196.5 394.277 195.9 394.277 195.7V194.8C394.277 193.6 393.777 192.2 392.777 190.6C391.777 188.8 390.577 186.9 389.177 184.9C387.977 182.9 386.677 180.9 385.277 178.9C384.077 176.7 383.177 174.7 382.577 172.9L382.877 173.2C378.877 167.6 375.277 161.8 372.077 155.8C369.077 149.6 365.277 143.8 360.677 138.4C361.077 139 361.577 140 362.177 141.4C362.977 142.6 363.577 143.4 363.977 143.8C360.377 139.4 356.677 135.2 352.877 131.2C349.277 127 346.877 122.6 345.677 118C345.877 118.2 346.177 118.3 346.577 118.3C351.577 118.3 356.577 116.7 361.577 113.5C366.777 110.1 371.077 106 374.477 101.2H375.677C381.677 93.2 386.477 86 390.077 79.6C393.677 73 395.477 65.5 395.477 57.1C395.477 56.5 395.377 55.9 395.177 55.3C395.177 54.7 395.177 54.1 395.177 53.5H393.977V51.4C393.977 47.8 393.077 44.4 391.277 41.2C389.477 38 387.177 35.2 384.377 32.8C381.777 30.2 378.777 27.9 375.377 25.9C372.177 23.7 369.077 21.8 366.077 20.2L366.377 19.9C368.577 20.9 370.877 21.8 373.277 22.6C375.677 23.4 377.777 24.6 379.577 26.2C372.777 21 367.077 16.9 362.477 13.9C357.877 10.9 354.077 8.99999 351.077 8.19999C345.477 6.99999 339.577 6.29999 333.377 6.09999C327.377 5.69999 321.477 5.49998 315.677 5.49998C309.477 5.49998 303.277 5.59999 297.077 5.8C290.877 6 283.877 6.29999 276.077 6.69999L273.977 6.99998V7.89999C273.977 7.69999 274.177 8.59999 274.577 10.6C274.977 10.4 275.277 10.4 275.477 10.6C275.677 10.6 275.877 10.4 276.077 10L276.977 11.2C277.977 11.2 279.077 11.1 280.277 10.9C281.677 10.5 282.977 10.3 284.177 10.3C284.577 10.3 284.877 10.4 285.077 10.6C285.277 10.6 285.577 10.6 285.977 10.6C284.377 11.4 282.777 11.9 281.177 12.1C279.577 12.1 278.077 13.2 276.677 15.4V17.2C276.677 20 276.077 23.2 274.877 26.8C274.477 36.6 273.977 46.5 273.377 56.5C272.977 66.3 272.777 76.3 272.777 86.5C272.777 91.5 272.877 96.6 273.077 101.8C273.477 107 273.877 111.9 274.277 116.5C274.677 121.1 274.977 125.2 275.177 128.8C275.577 132.2 275.777 134.6 275.777 136V142.6C275.777 147.2 275.677 151.9 275.477 156.7C275.277 161.5 275.177 166.2 275.177 170.8C275.177 174.2 275.277 177.5 275.477 180.7C275.677 183.7 276.077 186.8 276.677 190C277.277 190.4 277.577 190.8 277.577 191.2C277.577 191.6 276.977 195.5 275.777 202.9H275.477C275.077 202.7 274.777 202.5 274.577 202.3C274.577 201.9 274.477 201.6 274.277 201.4L275.177 208.3C275.977 209.7 277.777 210.4 280.577 210.4H282.077C283.877 210.4 284.877 210.5 285.077 210.7L284.777 211C285.177 211 285.577 211 285.977 211C286.577 210.8 287.177 210.7 287.777 210.7C289.377 210.7 291.077 210.9 292.877 211.3C294.677 211.5 296.577 211.6 298.577 211.6C300.377 211.6 302.377 211.3 304.577 210.7H303.977C304.777 210.3 305.477 209.9 306.077 209.5C306.877 209.1 308.477 208.6 310.877 208L312.377 161.2C312.377 160.2 312.377 159.2 312.377 158.2C312.377 157.2 312.277 156.2 312.077 155.2L311.177 156.7C310.977 156.3 310.877 155.4 310.877 154V151C310.877 148.6 310.877 146 310.877 143.2C310.877 140.2 310.977 137.3 311.177 134.5C311.377 131.7 311.577 129.2 311.777 127C311.977 124.6 312.277 122.8 312.677 121.6C313.277 122.8 313.577 123.9 313.577 124.9V125.5C315.177 125.9 316.377 127 317.177 128.8C317.977 130.6 318.977 132.2 320.177 133.6L319.577 134.2C324.377 141.6 328.977 149 333.377 156.4C337.977 163.8 342.077 171.4 345.677 179.2C348.077 182.2 349.877 185.6 351.077 189.4C352.477 193 353.977 196.5 355.577 199.9C357.377 203.1 359.777 205.9 362.777 208.3C365.777 210.5 370.077 211.6 375.677 211.6C378.677 211.6 381.677 211.4 384.677 211ZM352.277 61.9C352.277 61.9 352.077 62.7 351.677 64.3C351.877 64.7 351.977 65.8 351.977 67.6C351.977 71 350.877 74 348.677 76.6C346.477 79.2 343.977 81.5 341.177 83.5C339.977 83.9 338.677 84.1 337.277 84.1C336.077 83.9 335.177 84.4 334.577 85.6C331.177 84.6 327.877 84.1 324.677 84.1C322.877 84.1 320.977 84.2 318.977 84.4C317.177 84.4 315.277 84.4 313.277 84.4H309.677C308.477 84.4 307.877 83.9 307.877 82.9V82C307.877 81.4 307.377 81.1 306.377 81.1C306.777 80.3 307.177 79.6 307.577 79C307.977 78.2 308.177 77.4 308.177 76.6C308.177 75.8 308.077 75.3 307.877 75.1C308.077 74.7 308.177 73.7 308.177 72.1V59.8C308.177 57.2 308.077 55 307.877 53.2C307.677 51.4 307.277 50.3 306.677 49.9L306.077 44.5C307.077 44.5 308.077 44.5 309.077 44.5C310.077 44.3 311.077 44.2 312.077 44.2C314.477 44.2 316.777 44.3 318.977 44.5C321.377 44.5 323.677 44.5 325.877 44.5C327.677 44.5 329.477 44.5 331.277 44.5C333.077 44.3 334.777 44 336.377 43.6C335.377 42.6 334.877 42 334.877 41.8C335.077 41.8 336.077 42.5 337.877 43.9C339.877 45.1 341.877 46.7 343.877 48.7C346.077 50.7 347.977 52.9 349.577 55.3C351.377 57.7 352.277 59.9 352.277 61.9ZM336.377 80.8C335.577 81 335.177 81.4 335.177 82C338.977 82 342.377 80.5 345.377 77.5C348.577 74.5 350.177 70.8 350.177 66.4C350.177 62.6 349.377 59.4 347.777 56.8C346.377 54.2 344.377 52.1 341.777 50.5C339.377 48.9 336.477 47.8 333.077 47.2C329.877 46.6 326.577 46.3 323.177 46.3C320.977 46.3 318.777 46.4 316.577 46.6C314.577 46.8 312.477 47 310.277 47.2C310.277 48.4 310.277 49.6 310.277 50.8C310.477 52 310.577 53.1 310.577 54.1C310.577 58.1 310.477 61.8 310.277 65.2C310.077 68.6 309.977 72.1 309.977 75.7C309.977 77.7 310.177 79.4 310.577 80.8C311.177 82.2 312.477 82.9 314.477 82.9C316.677 82.9 318.977 82.8 321.377 82.6C323.777 82.2 326.077 82 328.277 82C331.077 82 332.677 82.1 333.077 82.3C333.077 80.3 334.077 79.3 336.077 79.3C336.277 79.5 336.477 79.6 336.677 79.6C336.877 79.6 337.077 79.7 337.277 79.9C337.677 79.9 338.077 79.9 338.477 79.9C338.077 80.3 337.377 80.6 336.377 80.8ZM545.051 137.8C545.051 147.8 545.051 161.9 545.051 180.1C545.451 185.7 545.851 190.5 546.251 194.5C546.651 198.5 547.051 201.8 547.451 204.4C547.251 205.2 547.151 206.2 547.151 207.4C547.151 208.6 547.051 209.8 546.851 211C546.651 212 546.251 213 545.651 214C545.251 214.8 544.351 215.3 542.951 215.5C539.951 214.7 535.851 214.3 530.651 214.3C528.251 214.3 525.851 214.3 523.451 214.3C521.051 214.5 518.651 214.6 516.251 214.6H512.351C510.551 214.6 509.351 214.5 508.751 214.3C508.351 215.5 507.951 216.1 507.551 216.1C507.151 216.1 506.751 215.9 506.351 215.5C505.951 215.1 505.551 214.9 505.151 214.9C504.751 214.9 504.451 215 504.251 215.2C503.251 212.4 502.551 209.5 502.151 206.5C501.951 203.3 501.851 200 501.851 196.6C501.851 195 501.851 193.6 501.851 192.4C502.051 191 502.151 189.5 502.151 187.9C502.151 186.1 502.051 184.3 501.851 182.5C501.851 180.7 501.751 178.9 501.551 177.1C500.951 165.1 500.751 153.5 500.951 142.3C501.151 131.1 500.551 119.8 499.151 108.4H498.251C495.851 109.8 493.951 112.4 492.551 116.2C491.351 120 490.151 123.9 488.951 127.9C487.951 131.7 486.851 135.1 485.651 138.1C484.451 141.1 482.851 142.6 480.851 142.6C479.251 142.6 478.051 141.9 477.251 140.5L477.551 139.6C477.551 138 476.851 136.6 475.451 135.4C474.251 134 473.651 132.9 473.651 132.1C473.651 131.7 473.651 131.4 473.651 131.2C473.851 131 473.951 130.7 473.951 130.3C473.951 129.3 473.651 128.3 473.051 127.3C472.651 126.3 472.251 125.3 471.851 124.3H472.451C473.451 125.5 474.351 126.7 475.151 127.9C476.151 129.1 477.151 130.3 478.151 131.5C476.351 128.1 474.451 124.9 472.451 121.9C470.651 118.7 469.551 117.1 469.151 117.1C468.951 117.1 468.851 117.3 468.851 117.7C468.651 117.5 468.351 116.7 467.951 115.3C467.551 113.7 467.051 112.1 466.451 110.5C466.051 108.9 465.551 107.4 464.951 106C464.551 104.4 464.151 103.5 463.751 103.3C463.351 104.9 463.051 107.4 462.851 110.8C462.851 114 462.851 117.9 462.851 122.5C462.851 127.9 462.851 133.7 462.851 139.9C463.051 145.9 463.351 152.3 463.751 159.1C463.751 159.1 463.551 160.2 463.151 162.4H463.451C463.451 169.2 463.251 176.2 462.851 183.4C462.451 190.4 462.251 197.6 462.251 205V209.8C462.251 212.2 462.351 213.7 462.551 214.3L460.751 215.5H459.551C457.351 215.3 455.251 215.1 453.251 214.9C451.251 214.9 449.151 214.9 446.951 214.9C443.351 214.9 439.751 215 436.151 215.2C432.751 215.4 429.251 215.5 425.651 215.5C423.851 215.5 422.351 215.1 421.151 214.3C419.951 213.5 419.351 211.6 419.351 208.6C419.351 207.6 419.351 206.6 419.351 205.6C419.551 204.6 419.651 203.6 419.651 202.6C419.651 201.4 419.551 200.5 419.351 199.9H418.751C418.751 198.3 418.951 196.9 419.351 195.7C419.951 194.5 420.251 192.5 420.251 189.7C419.651 171.7 419.251 157.6 419.051 147.4C418.851 137 418.651 129.2 418.451 124C418.251 118.8 418.151 115.6 418.151 114.4C418.151 113 418.051 112.3 417.851 112.3C417.651 112.3 417.551 112.4 417.551 112.6C417.551 112.6 417.451 112.6 417.251 112.6V113.8C417.251 100.6 417.551 87.9 418.151 75.7C418.751 63.5 419.051 50.8 419.051 37.6C419.051 33.6 418.951 29.7 418.751 25.9C418.751 21.9 418.651 17.9 418.451 13.9L419.051 12.1C419.451 9.69998 419.751 8.19999 419.951 7.59999C420.151 6.99999 420.651 6.69999 421.451 6.69999C422.251 6.69999 422.951 6.79999 423.551 6.99998C424.351 6.99998 425.251 6.99998 426.251 6.99998H461.051L468.251 16.9L467.651 17.8C469.451 20 470.851 22.8 471.851 26.2C473.051 29.4 474.051 32.5 474.851 35.5C475.851 38.5 476.751 41.1 477.551 43.3C478.551 45.5 479.651 46.6 480.851 46.6C482.251 46.6 483.751 45 485.351 41.8C486.951 38.4 488.551 34.5 490.151 30.1C491.751 25.7 493.351 21.2 494.951 16.6C496.751 12 498.451 8.49999 500.051 6.09999C503.251 6.09999 506.551 6.19999 509.951 6.39999C513.351 6.59999 516.951 6.69999 520.751 6.69999C527.551 6.69999 533.051 5.99999 537.251 4.6L545.651 5.19999C545.651 5.59999 545.451 5.9 545.051 6.09999C544.651 6.29999 544.451 6.59999 544.451 6.99998C544.451 7.19999 544.551 7.4 544.751 7.59999L545.351 8.19999C545.151 10.2 544.951 12.1 544.751 13.9C544.751 15.7 544.751 17.6 544.751 19.6V31C544.751 41.2 544.951 51.1 545.351 60.7C545.751 70.3 545.951 80.2 545.951 90.4C545.951 95.2 545.851 100 545.651 104.8C545.451 109.6 545.151 114.4 544.751 119.2C544.951 121.4 545.051 127.6 545.051 137.8ZM542.651 191.2V182.5L540.551 115.3L543.851 97.9C543.851 96.1 543.451 94.4 542.651 92.8L543.551 88.3C543.151 84.7 542.851 82.2 542.651 80.8C542.451 79.2 542.351 78.2 542.351 77.8C542.351 77.2 542.351 76.8 542.351 76.6C542.551 76.4 542.651 75.7 542.651 74.5C542.651 72.7 542.651 70.9 542.651 69.1C542.851 67.3 543.251 65.3 543.851 63.1C543.651 61.7 543.451 60.3 543.251 58.9C543.251 57.5 543.251 56 543.251 54.4C543.251 51.6 543.251 49 543.251 46.6C543.451 44 543.551 41.2 543.551 38.2C543.551 37.2 543.451 36.2 543.251 35.2C543.251 34.2 543.051 32.8 542.651 31C542.451 29 542.051 26.5 541.451 23.5C541.051 20.5 540.351 16.4 539.351 11.2C539.351 10.8 538.051 9.69999 535.451 7.89999C534.851 8.09999 533.551 8.19999 531.551 8.19999H518.051C512.851 8.19999 508.351 9.49999 504.551 12.1C500.951 14.7 497.951 17.9 495.551 21.7C493.351 25.5 491.651 29.6 490.451 34C489.251 38.4 488.551 42.4 488.351 46C487.551 47.6 486.751 49.2 485.951 50.8C485.151 52.2 484.551 53.9 484.151 55.9L483.551 55.6C483.151 55.6 482.751 55.7 482.351 55.9C481.951 56.1 481.551 56.2 481.151 56.2C479.951 56.2 478.551 54.8 476.951 52C475.551 49 474.151 45.8 472.751 42.4C471.551 38.8 470.451 35.5 469.451 32.5C468.651 29.3 468.151 27.4 467.951 26.8C466.551 23.8 465.151 21 463.751 18.4C462.551 15.6 461.551 13.3 460.751 11.5C459.151 11.9 454.251 12.1 446.051 12.1C442.251 12.1 439.051 12.1 436.451 12.1C433.851 11.9 431.751 11.8 430.151 11.8H428.351H424.451C423.451 16.6 422.651 21.7 422.051 27.1C421.451 32.5 421.151 37.7 421.151 42.7V46.3C421.151 47.5 421.051 49.4 420.851 52C420.851 54.4 420.851 56.3 420.851 57.7C420.851 59.7 420.951 61.8 421.151 64C421.551 66 421.951 68.3 422.351 70.9C421.751 74.5 421.351 78.2 421.151 82C420.951 85.6 420.851 89.3 420.851 93.1C420.851 99.5 420.951 105.9 421.151 112.3C421.551 118.7 421.751 124.9 421.751 130.9V138.7C422.151 142.9 422.451 147.1 422.651 151.3C422.851 155.5 422.951 159.7 422.951 163.9C422.951 169.1 422.851 174.2 422.651 179.2C422.651 184.2 422.651 189.6 422.651 195.4C422.651 200 422.851 203.6 423.251 206.2C423.851 208.6 424.751 210.4 425.951 211.6C427.351 212.6 429.151 213.2 431.351 213.4C433.751 213.6 436.851 213.7 440.651 213.7C443.051 213.7 445.451 213.6 447.851 213.4C450.451 213.2 453.151 212.8 455.951 212.2C456.351 211.6 456.951 207.7 457.751 200.5C458.751 193.3 460.051 183.1 461.651 169.9C461.651 166.5 461.551 162.6 461.351 158.2C461.151 153.6 461.051 149 461.051 144.4L460.751 108.4C460.751 107.6 460.651 106.9 460.451 106.3C460.451 105.5 460.451 104.8 460.451 104.2C460.451 100 460.951 97.9 461.951 97.9C462.351 97.9 463.051 98.8 464.051 100.6C465.051 102.4 466.151 104.5 467.351 106.9C468.551 109.1 469.651 111.3 470.651 113.5C471.651 115.5 472.251 116.8 472.451 117.4C474.251 121 476.051 124.6 477.851 128.2C479.651 131.8 481.051 134.8 482.051 137.2L483.251 136V136.3C483.851 136.3 484.551 135.2 485.351 133C486.151 130.6 487.051 127.8 488.051 124.6C489.051 121.4 490.151 118.1 491.351 114.7C492.551 111.1 493.751 108 494.951 105.4L500.051 94.3H502.751C502.551 95.5 502.351 96.7 502.151 97.9C502.151 98.9 502.151 100 502.151 101.2C502.151 104.8 502.351 108.5 502.751 112.3C503.151 116.1 503.351 119.9 503.351 123.7V128.5C503.351 131.3 503.451 135.2 503.651 140.2C503.851 145.2 504.151 150.8 504.551 157C504.951 163 505.251 169.1 505.451 175.3C505.851 181.5 506.251 187.3 506.651 192.7C507.051 197.9 507.351 202.2 507.551 205.6C507.751 209 507.851 210.9 507.851 211.3C510.851 212.1 515.251 212.5 521.051 212.5C524.251 212.5 527.351 212.4 530.351 212.2C533.551 212 536.751 211.7 539.951 211.3C541.151 209.7 542.051 203 542.651 191.2ZM503.351 157.3C503.551 156.7 503.451 156.2 503.051 155.8C503.251 156.2 503.251 156.7 503.051 157.3C503.051 157.7 503.251 158.1 503.651 158.5C503.451 158.1 503.351 157.7 503.351 157.3ZM503.351 151.9L503.051 152.5V155.2L503.351 151.9ZM123.9 228.8C124.9 228.8 125.9 228.9 126.9 229.1C127.5 229.7 127.8 230.4 127.8 231.2C127.8 232 127.6 232.8 127.2 233.6C126.8 234.2 126.6 235 126.6 236C126.4 242.8 126 248.8 125.4 254C125 259.2 124.6 264.7 124.2 270.5L123.3 272L114.3 365.3C112.7 376.7 111.4 388.4 110.4 400.4C109.6 412.2 108.9 423.9 108.3 435.5C107.9 436.1 107.4 436.4 106.8 436.4C106.4 436.4 105.9 436.3 105.3 436.1C104.7 435.9 104 435.8 103.2 435.8H83.4C83.4 435.4 83.3 435.2 83.1 435.2C82.9 435.2 82.6 435 82.2 434.6L81.6 434.9C79.4 428.9 77.1 423 74.7 417.2C72.5 411.2 69.7 405.5 66.3 400.1C63.1 405.3 60.4 410.7 58.2 416.3C56.2 421.9 53.6 427.3 50.4 432.5C50.4 434.1 49.9 435.2 48.9 435.8C47.9 436.2 46.7 436.4 45.3 436.4C44.9 436.2 43.6 436.1 41.4 436.1C38.4 436.1 34.4 436.4 29.4 437C26.4 436.6 24.4 435.9 23.4 434.9C22.6 421.1 20.8 407.6 18 394.4C15.2 381.2 13.2 367.7 12 353.9L4.5 284.6C3.9 275.6 3.2 266.8 2.4 258.2C1.6 249.4 1 240.7 0.600001 232.1L2.7 229.1C3.5 228.9 4.2 228.8 4.8 228.8C5.4 228.6 6.1 228.5 6.9 228.5H23.4C24.4 228.7 25.2 228.9 25.8 229.1C26.6 229.1 27.5 229.1 28.5 229.1C30.5 229.1 32.4 229 34.2 228.8C36.2 228.4 38.2 228.2 40.2 228.2C40.8 228.2 41.4 228.3 42 228.5C42.6 228.5 43.2 228.5 43.8 228.5L44.7 229.4C45.5 238.6 46.1 247.5 46.5 256.1C47.1 264.7 47.7 273.4 48.3 282.2C48.9 291 49.6 300 50.4 309.2C51.4 318.2 52.8 327.7 54.6 337.7C55.6 334.1 56.5 330.8 57.3 327.8C58.3 324.6 59.1 321.6 59.7 318.8C60.5 315.8 61.3 312.8 62.1 309.8C62.9 306.6 63.7 303.1 64.5 299.3C64.9 299.3 65.4 300.2 66 302C66.8 303.8 67.6 305.9 68.4 308.3C69.2 310.7 70 313.1 70.8 315.5C71.6 317.7 72.2 319.4 72.6 320.6L75.9 328.7C76.5 330.1 77.1 331.6 77.7 333.2C78.3 334.6 78.8 336.2 79.2 338C81 319.8 82.2 301.8 82.8 284C83.4 266.2 84.5 248.2 86.1 230L87.9 229.1H91.8H94.8C97 229.1 99.8 229.1 103.2 229.1C106.8 228.9 110.9 228.8 115.5 228.8H120.9C121.9 228.8 122.9 228.8 123.9 228.8ZM113.7 320C116.1 303.2 118 286 119.4 268.4C119.8 263.8 120.2 259.3 120.6 254.9C121.2 250.5 121.5 246 121.5 241.4V237.8C121.5 235.8 121.4 234.5 121.2 233.9C117 234.5 112.6 234.9 108 235.1C103.6 235.3 99.3 235.8 95.1 236.6C94.7 239 94.3 242.2 93.9 246.2C93.5 250.2 93.1 254.1 92.7 257.9C92.3 261.7 91.8 265.1 91.2 268.1C90.6 270.9 89.9 272.5 89.1 272.9C88.9 272.7 88.8 271.9 88.8 270.5C88.8 268.5 89 266.6 89.4 264.8C89.8 262.8 90 260.9 90 259.1C89.2 261.3 88.8 263.4 88.8 265.4C88.4 269 88 271.9 87.6 274.1C87.2 276.1 86.8 277.7 86.4 278.9C86.2 280.1 86 281 85.8 281.6C85.6 282.2 85.5 282.8 85.5 283.4C85.5 284.2 85.6 285.1 85.8 286.1C86 286.9 86.1 287.8 86.1 288.8C86.7 288.2 87.3 287.8 87.9 287.6C87.9 290.4 87.5 293 86.7 295.4C85.9 297.8 85.5 300.1 85.5 302.3C85.5 302.5 85.5 303 85.5 303.8C85.5 304.6 85.6 305.8 85.8 307.4C85.6 307.2 85.4 307.1 85.2 307.1C86.2 307.7 86.7 310.1 86.7 314.3C86.7 315.9 86.4 316.7 85.8 316.7C85.2 316.5 84.9 317.1 84.9 318.5C84.9 320.5 85.4 322.8 86.4 325.4C85.6 326.8 85.2 328.8 85.2 331.4C85.2 332.4 85.2 333.4 85.2 334.4C85.4 335.2 85.5 336.1 85.5 337.1C85.5 337.7 85.4 339 85.2 341C85 342.8 84.7 344.8 84.3 347C83.9 349.2 83.4 351.4 82.8 353.6C82.2 355.6 81.5 357.1 80.7 358.1C78.7 356.9 77 354.7 75.6 351.5C74.4 348.1 73.2 344.4 72 340.4C71 336.2 70 331.9 69 327.5C68 322.9 66.8 318.8 65.4 315.2C64 319.2 62.9 323.2 62.1 327.2C61.5 331 60.8 334.7 60 338.3C59.4 341.9 58.6 345.4 57.6 348.8C56.8 352 55.4 355 53.4 357.8C51.8 355.6 50.6 353.2 49.8 350.6C49.2 348 48.7 345.3 48.3 342.5C45.9 325.5 44.1 308 42.9 290C41.9 272 40.3 254.2 38.1 236.6C36.3 236.2 34.5 236 32.7 236C30.9 235.8 29.2 235.2 27.6 234.2V233.6L23.1 233.9C21.7 234.7 20.4 235.1 19.2 235.1C15.2 234.5 12.7 234.2 11.7 234.2C11.1 234.2 10 234.4 8.4 234.8V235.7C8.4 236.3 8.3 236.9 8.1 237.5C8.1 237.9 8.1 238.5 8.1 239.3C8.1 240.3 8.2 240.9 8.4 241.1C10.8 258.7 12.5 276.3 13.5 293.9C14.7 311.3 16.3 328.8 18.3 346.4V353.9C18.5 354.1 18.6 354.4 18.6 354.8C18.6 355.6 18.4 356 18 356L17.7 359C17.7 359.4 17.8 359.7 18 359.9C18.2 359.9 18.4 360.2 18.6 360.8C18.8 361.4 19 362.4 19.2 363.8C19.4 365.2 19.5 367.3 19.5 370.1L22.5 386.6C23.1 393.8 24.4 401 26.4 408.2C28.4 415.4 30 422.7 31.2 430.1L43.8 429.8L46.5 431.3C48.1 428.1 49.6 424.5 51 420.5C52.6 416.5 54.1 412.4 55.5 408.2C56.9 404 58.3 399.9 59.7 395.9C61.1 391.9 62.6 388.2 64.2 384.8C65.8 384.8 67.2 386 68.4 388.4C69.8 390.6 71 393.3 72 396.5C73 399.7 73.9 402.9 74.7 406.1C75.5 409.3 76.2 411.8 76.8 413.6C77.8 414.8 78.5 416.3 78.9 418.1C79.5 419.7 80.1 421.3 80.7 422.9C81.3 424.3 82.1 425.6 83.1 426.8C84.1 427.8 85.5 428.3 87.3 428.3C87.7 428.3 88.1 428.3 88.5 428.3C89.1 428.1 89.7 428 90.3 428C92.3 428 94 428.3 95.4 428.9C97 429.3 98.5 429.5 99.9 429.5C101.1 429.5 102.1 428.4 102.9 426.2C103.7 424 104.3 421.4 104.7 418.4C105.3 415.2 105.7 412 105.9 408.8C106.1 405.6 106.2 403 106.2 401C106.2 397.6 106 394.2 105.6 390.8C105.4 387.2 105.3 384.4 105.3 382.4C105.3 381.2 106 379.9 107.4 378.5L107.1 370.7C109.1 353.7 111.3 336.8 113.7 320ZM196.153 224C196.353 222.8 196.653 221.7 197.053 220.7C197.653 221.5 198.053 222.6 198.253 224C198.453 225.2 199.053 226.2 200.053 227H204.253C204.253 228.4 203.553 229.2 202.153 229.4C200.753 229.6 200.053 230.4 200.053 231.8V232.7C199.253 237.1 198.753 241.5 198.553 245.9C198.353 250.3 198.253 254.8 198.253 259.4C198.253 264.8 198.353 270.4 198.553 276.2C198.753 281.8 198.853 287.5 198.853 293.3C198.853 300.5 198.553 307.5 197.953 314.3C198.153 315.9 198.253 317.5 198.253 319.1C198.253 320.7 198.253 322.3 198.253 323.9V333.2C198.253 342.8 197.953 350.9 197.353 357.5C196.953 363.9 196.753 368.8 196.753 372.2C197.153 382.4 197.553 392.5 197.953 402.5C198.353 412.5 199.153 422.6 200.353 432.8L202.453 437C202.453 437.8 201.953 438.3 200.953 438.5C200.153 438.7 199.553 438.8 199.153 438.8C196.953 438.8 194.453 438.4 191.653 437.6C189.053 437 184.653 436.7 178.453 436.7H167.653C165.453 436.7 163.653 436.7 162.253 436.7C161.053 436.5 160.253 436.4 159.853 436.4H159.253L158.053 437C157.453 437.4 155.953 438 153.553 438.8C151.353 439.6 150.053 440 149.653 440C149.253 440 149.053 439.9 149.053 439.7V439.4C148.053 439.4 147.453 439 147.253 438.2C147.053 437.4 146.753 437 146.353 437L145.153 437.6C145.753 419.4 146.553 402.1 147.553 385.7C148.553 369.1 149.053 352.3 149.053 335.3C149.053 329.3 148.953 323.4 148.753 317.6C148.553 311.6 148.253 305.4 147.853 299C148.053 294.8 148.153 290.6 148.153 286.4C148.153 282.2 148.853 278.1 150.253 274.1L149.053 273.8L149.353 272C149.353 272.2 149.453 272.4 149.653 272.6C149.653 271.4 149.753 270.3 149.953 269.3C150.353 268.1 150.553 266.2 150.553 263.6C150.553 260.8 150.453 258.5 150.253 256.7C150.253 254.9 150.253 253.5 150.253 252.5C150.253 250.1 150.353 247.7 150.553 245.3C150.953 242.7 151.153 240.2 151.153 237.8C151.153 235.6 150.853 233.4 150.253 231.2H149.353C149.353 229.8 150.053 228.6 151.453 227.6C153.053 226.6 153.753 226.1 153.553 226.1H154.753H157.753C157.953 226.1 158.253 226.1 158.653 226.1C159.253 226.1 159.953 226 160.753 225.8L160.453 227C163.053 227.8 166.653 228.2 171.253 228.2C175.253 228.2 179.153 228 182.953 227.6C186.953 227 190.853 226.7 194.653 226.7C195.653 225.9 196.153 225 196.153 224ZM191.653 258.5C191.853 258.5 192.053 258.6 192.253 258.8V258.2C192.253 257.8 192.053 257.5 191.653 257.3C191.253 256.9 191.053 256.5 191.053 256.1L191.653 255.5L191.953 255.8V240.2C191.953 239.6 191.853 238.9 191.653 238.1C191.653 237.3 191.553 236.4 191.353 235.4C187.353 234.6 183.453 234 179.653 233.6C175.853 233 171.953 232.7 167.953 232.7H162.553C160.753 232.7 159.853 233.6 159.853 235.4C159.853 235.8 159.853 236.4 159.853 237.2C160.053 238 160.253 238.9 160.453 239.9L161.353 242.6C161.353 242.6 160.653 242.1 159.253 241.1C159.253 241.7 159.253 242.4 159.253 243.2C159.453 243.8 159.553 244.5 159.553 245.3C159.553 246.7 159.153 247.7 158.353 248.3L158.053 247.7C158.053 248.1 157.953 248.6 157.753 249.2C157.753 249.8 157.753 250.3 157.753 250.7C157.753 251.5 158.253 252.4 159.253 253.4C159.253 258.8 158.653 261.5 157.453 261.5C157.053 264.9 156.653 269.8 156.253 276.2C156.053 282.6 155.853 289.4 155.653 296.6C155.653 303.8 155.553 310.9 155.353 317.9C155.353 324.9 155.353 330.7 155.353 335.3C155.353 340.5 155.453 345.7 155.653 350.9C156.053 356.1 156.453 361 156.853 365.6C157.253 370 157.553 373.8 157.753 377C158.153 380 158.353 381.9 158.353 382.7V383L158.053 382.4V384.8C158.253 386.8 158.453 389.1 158.653 391.7C158.853 394.1 158.953 396.6 158.953 399.2C159.153 401.6 159.253 404 159.253 406.4C159.453 408.6 159.553 410.5 159.553 412.1C159.553 413.9 159.353 415.7 158.953 417.5C158.753 419.3 158.653 421.1 158.653 422.9C158.653 425.7 159.053 427.8 159.853 429.2C168.853 429 175.253 428.9 179.053 428.9C182.853 428.9 184.753 428.1 184.753 426.5C185.753 427.7 186.453 428.3 186.853 428.3C187.253 428.1 187.753 428.3 188.353 428.9C188.753 426.7 188.953 424.5 188.953 422.3C189.153 420.1 189.253 417.9 189.253 415.7V404.6L188.353 404.9V403.4C188.553 403.4 188.653 402.4 188.653 400.4V386.6C188.653 383.2 188.653 379.5 188.653 375.5C188.853 371.5 189.153 367 189.553 362C189.553 360.4 189.253 357.6 188.653 353.6C188.653 352.4 188.953 351.2 189.553 350C189.753 350 189.953 350.1 190.153 350.3C190.553 349.1 190.753 348.4 190.753 348.2C190.753 346.6 190.353 344.5 189.553 341.9H189.853C190.053 341.9 190.153 341.4 190.153 340.4C190.153 339.4 190.053 337.8 189.853 335.6C189.653 333.4 189.353 330.3 188.953 326.3C188.953 324.5 189.053 323.5 189.253 323.3C189.653 323.7 189.853 324 189.853 324.2L190.453 324.5C190.453 323.1 190.553 320.9 190.753 317.9C190.953 314.7 191.053 311.2 191.053 307.4C191.253 303.4 191.453 299.2 191.653 294.8C191.853 290.4 191.953 286.1 191.953 281.9V267.5C191.953 265.9 191.953 264.4 191.953 263C191.953 261.4 191.853 259.9 191.653 258.5ZM313.662 230.9C320.662 232.9 326.762 236.4 331.962 241.4C339.562 247 345.062 253.6 348.462 261.2C351.862 268.8 353.562 276.9 353.562 285.5C353.562 287.1 353.462 288.6 353.262 290C353.262 291.2 353.162 292.6 352.962 294.2C347.762 295.6 342.362 296.4 336.762 296.6C331.362 296.6 325.762 296.6 319.962 296.6C316.962 296.6 314.062 296.5 311.262 296.3C308.662 295.9 306.562 295.1 304.962 293.9C305.762 293.1 306.162 292 306.162 290.6C306.162 285.4 304.062 281.3 299.862 278.3C295.662 275.3 291.262 273.8 286.662 273.8C285.062 273.8 283.262 273.9 281.262 274.1C279.262 274.3 277.862 274.8 277.062 275.6L278.262 276.2C274.062 276.8 271.162 278.5 269.562 281.3C267.962 284.1 267.162 287.2 267.162 290.6C267.162 296 268.662 299.9 271.662 302.3C274.862 304.7 278.562 306.4 282.762 307.4C286.962 308.4 291.262 309.2 295.662 309.8C300.262 310.2 303.962 311.2 306.762 312.8C312.762 316.4 318.362 319.9 323.562 323.3C328.962 326.5 333.662 330.3 337.662 334.7C341.662 339.1 344.762 344.5 346.962 350.9C349.362 357.3 350.562 365.3 350.562 374.9C350.562 386.9 348.062 397.8 343.062 407.6C338.262 417.4 330.762 424.7 320.562 429.5C321.562 428.1 322.862 427 324.462 426.2C326.062 425.2 327.362 423.9 328.362 422.3H325.062C323.862 423.1 322.662 423.9 321.462 424.7C320.262 425.3 319.162 425.8 318.162 426.2L311.862 428.9C307.862 430.7 303.762 433.1 299.562 436.1H298.362C297.162 436.1 295.762 436.3 294.162 436.7C292.762 436.9 291.462 437 290.262 437C289.262 437 288.662 436.9 288.462 436.7C287.862 436.9 286.662 437 284.862 437H281.562C274.762 437 268.562 436.6 262.962 435.8C257.362 434.8 251.262 433.5 244.662 431.9C242.062 431.1 239.762 429.8 237.762 428C235.962 426.2 234.262 424.2 232.662 422C231.262 419.8 229.762 417.6 228.162 415.4C226.762 413 225.262 410.9 223.662 409.1C220.462 403.9 218.162 398.3 216.762 392.3C215.562 386.3 214.762 380.1 214.362 373.7L216.162 372.2C220.562 372.6 224.862 372.9 229.062 373.1C233.462 373.3 237.762 373.4 241.962 373.4C244.762 373.4 247.562 373.3 250.362 373.1C253.362 372.9 256.262 372.6 259.062 372.2C260.462 372.6 261.462 373.3 262.062 374.3C262.662 375.3 263.062 376.5 263.262 377.9C263.662 379.1 263.962 380.3 264.162 381.5C264.562 382.7 265.262 383.7 266.262 384.5C270.462 390.5 275.962 393.5 282.762 393.5C288.762 393.5 293.662 391.6 297.462 387.8C301.262 383.8 303.162 378.6 303.162 372.2C303.162 370.4 302.562 368.6 301.362 366.8C298.762 362.2 295.362 358.8 291.162 356.6C287.162 354.2 282.862 352.4 278.262 351.2C273.662 350 268.862 349 263.862 348.2C259.062 347.4 254.562 346.2 250.362 344.6C245.162 342.6 240.562 339.9 236.562 336.5C232.762 332.9 229.562 328.9 226.962 324.5C224.362 319.9 222.462 315.1 221.262 310.1C220.062 304.9 219.462 299.6 219.462 294.2C219.462 285.8 220.462 277.9 222.462 270.5C224.662 262.9 228.262 255.9 233.262 249.5C240.262 242.7 249.162 237.4 259.962 233.6C270.762 229.6 281.462 227.6 292.062 227.6C299.462 227.6 306.662 228.7 313.662 230.9ZM340.962 291.8C341.162 291.6 341.462 291.5 341.862 291.5L344.862 290C344.662 287.8 344.562 285.7 344.562 283.7C344.762 281.5 344.662 279 344.262 276.2C343.262 270.2 340.962 265 337.362 260.6C333.762 256 329.562 252.1 324.762 248.9C319.962 245.7 314.762 243 309.162 240.8C303.562 238.6 298.162 236.7 292.962 235.1C291.362 234.7 290.262 234.5 289.662 234.5H286.362C280.162 234.5 273.762 235.4 267.162 237.2C260.562 239 255.762 241.4 252.762 244.4C250.562 244.4 248.762 245.3 247.362 247.1C245.962 248.7 244.862 249.5 244.062 249.5C243.662 249.5 243.462 249.3 243.462 248.9C243.462 248.1 244.262 247.4 245.862 246.8C247.662 246 249.162 244.8 250.362 243.2C248.762 243.6 247.062 244.5 245.262 245.9C243.662 247.3 242.162 248.8 240.762 250.4C239.362 252 238.162 253.6 237.162 255.2C236.362 256.6 235.962 257.6 235.962 258.2C235.962 257.6 236.562 256.7 237.762 255.5C239.162 254.3 240.362 253.4 241.362 252.8L241.962 254.6C237.362 258.8 234.162 263.7 232.362 269.3C230.562 274.7 228.962 279.3 227.562 283.1C226.362 286.5 225.662 288.9 225.462 290.3C225.262 291.7 225.162 294.4 225.162 298.4C225.162 304.8 226.762 310.9 229.962 316.7C233.162 322.5 237.562 327.7 243.162 332.3C243.162 333.3 243.562 334.3 244.362 335.3C245.362 336.3 246.362 337 247.362 337.4C252.762 339 258.262 340.4 263.862 341.6C269.462 342.6 274.862 344 280.062 345.8C285.462 347.6 290.462 350 295.062 353C299.662 355.8 303.562 359.8 306.762 365C307.962 367.4 308.562 369.9 308.562 372.5C308.562 375.5 307.862 378.5 306.462 381.5C305.062 384.3 303.162 386.9 300.762 389.3C298.362 391.5 295.562 393.3 292.362 394.7C289.162 396.1 285.762 396.8 282.162 396.8C278.562 396.8 275.562 396.3 273.162 395.3C270.762 394.3 268.662 393 266.862 391.4C265.262 389.6 263.862 387.7 262.662 385.7C261.462 383.7 260.262 381.8 259.062 380C256.662 379.2 253.562 378.8 249.762 378.8C245.762 378.8 241.862 379.1 238.062 379.7C234.462 380.3 230.762 380.6 226.962 380.6H224.262C223.062 380.6 222.262 380.5 221.862 380.3C222.062 381.9 222.362 383.9 222.762 386.3C223.162 388.7 223.562 391 223.962 393.2C224.562 395.4 225.162 397.3 225.762 398.9C226.362 400.5 226.862 401.3 227.262 401.3C228.462 404.9 230.462 408.4 233.262 411.8C236.062 415 239.262 417.9 242.862 420.5C246.462 422.9 250.162 424.9 253.962 426.5C257.962 428.1 261.662 428.9 265.062 428.9C266.462 428.9 267.562 428.5 268.362 427.7C268.962 428.3 269.962 428.6 271.362 428.6H272.862C274.662 428.6 276.562 429 278.562 429.8C280.562 430.4 282.762 430.7 285.162 430.7C296.362 430.7 306.362 427.5 315.162 421.1C323.962 414.7 331.562 407.2 337.962 398.6C339.762 394.6 341.162 390.3 342.162 385.7C343.362 380.9 343.962 376 343.962 371C343.962 363 342.762 356.4 340.362 351.2C338.162 346 335.062 341.6 331.062 338C327.262 334.4 322.762 331.4 317.562 329C312.362 326.6 306.962 324.2 301.362 321.8L272.262 309.5C268.462 307.7 266.062 304.9 265.062 301.1C264.062 297.3 263.562 293.7 263.562 290.3C263.562 287.7 263.862 285 264.462 282.2C265.062 279.2 266.062 276.6 267.462 274.4C269.062 272 271.162 270.1 273.762 268.7C276.362 267.1 279.662 266.3 283.662 266.3C287.462 266.3 290.862 267.1 293.862 268.7C297.062 270.1 299.862 272 302.262 274.4C304.662 276.6 306.662 279.2 308.262 282.2C309.862 285.2 311.062 288.2 311.862 291.2C314.462 291.8 317.562 292.1 321.162 292.1C323.362 292.1 325.662 291.9 328.062 291.5C330.462 290.9 332.662 290.6 334.662 290.6C335.662 290.6 336.662 290.8 337.662 291.2C338.662 291.6 339.662 291.8 340.662 291.8H340.962ZM470.367 395.3C478.767 395.3 487.167 395 495.567 394.4L496.767 395.9L497.367 406.1C497.367 410.7 497.167 415.3 496.767 419.9C496.367 424.3 496.167 428.9 496.167 433.7L494.367 435.8L413.667 436.1C413.267 435.9 412.367 435.8 410.967 435.8H408.267C405.667 435.8 403.067 436 400.467 436.4C398.067 436.8 395.067 437 391.467 437C383.867 437 378.667 436.7 375.867 436.1C373.267 435.3 371.967 434.5 371.967 433.7C372.167 433.5 372.267 433.3 372.267 433.1C372.267 432.5 372.367 432 372.567 431.6C372.367 430.6 372.167 429.7 371.967 428.9C371.967 428.1 371.967 427.2 371.967 426.2C371.967 424.4 372.067 422.6 372.267 420.8C372.467 419 372.567 417.2 372.567 415.4V413C372.567 411.8 372.467 411 372.267 410.6C372.467 407.4 372.567 404.3 372.567 401.3C372.767 398.3 372.867 395.3 372.867 392.3C372.867 380.3 372.467 368.7 371.667 357.5C370.867 346.1 370.467 334.7 370.467 323.3C370.467 314.3 370.667 305 371.067 295.4C371.467 285.6 371.667 275.6 371.667 265.4C371.667 259.6 371.767 253.8 371.967 248C372.167 242.2 372.567 236.6 373.167 231.2C374.367 230.6 375.067 230.2 375.267 230C375.667 229.8 377.067 229.7 379.467 229.7C381.867 229.7 386.067 229.7 392.067 229.7C398.067 229.5 407.267 229.2 419.667 228.8C420.467 229.4 421.967 229.7 424.167 229.7H433.167C438.767 229.7 443.267 229.8 446.667 230C450.267 230 454.067 230 458.067 230C468.867 230 479.267 229.7 489.267 229.1L490.167 228.5C488.567 227.5 486.667 227 484.467 227C483.467 227 482.367 227.1 481.167 227.3C480.167 227.3 479.167 227.3 478.167 227.3H476.667V226.7C480.067 226.7 483.367 226.6 486.567 226.4C489.767 226.2 493.067 225.9 496.467 225.5C497.267 225.7 497.667 226.2 497.667 227C497.667 227.6 497.067 228.5 495.867 229.7C496.267 231.5 496.467 233.4 496.467 235.4C496.667 237.2 496.767 239.1 496.767 241.1C496.767 243.9 496.667 246.7 496.467 249.5C496.467 252.3 496.467 255.1 496.467 257.9V261.5C496.467 263.1 496.567 264.2 496.767 264.8C496.567 265.8 496.367 266.9 496.167 268.1C496.167 269.3 496.167 270.4 496.167 271.4V272.9C493.567 273.3 489.167 273.7 482.967 274.1C476.967 274.5 468.867 274.9 458.667 275.3C457.667 275.3 456.567 275.3 455.367 275.3C454.167 275.1 452.967 274.9 451.767 274.7L417.267 275.6L416.667 276.8C416.667 277.8 416.667 278.8 416.667 279.8C416.867 280.6 416.967 281.5 416.967 282.5C416.967 285.9 416.767 289.2 416.367 292.4C416.167 295.6 416.067 298.9 416.067 302.3C416.067 303.7 416.067 305.1 416.067 306.5C416.267 307.7 416.467 309 416.667 310.4L417.867 311.6L454.167 311.9C454.767 313.1 455.067 316.8 455.067 323C455.067 327.6 454.967 332.9 454.767 338.9C454.767 344.7 454.767 350.3 454.767 355.7C451.967 355.1 448.467 354.8 444.267 354.8H444.867C444.267 354.8 442.567 354.8 439.767 354.8C437.167 354.8 434.267 354.9 431.067 355.1C428.067 355.1 425.367 355.2 422.967 355.4C420.567 355.4 419.367 355.5 419.367 355.7C419.367 356.1 419.067 356.6 418.467 357.2L417.567 358.7V379.4C417.567 385 417.967 389.3 418.767 392.3C418.567 392.7 418.367 393 418.167 393.2C417.967 393.2 417.867 393.4 417.867 393.8L419.067 394.4C428.067 394.4 436.767 394.6 445.167 395C453.567 395.2 461.967 395.3 470.367 395.3ZM431.967 431C443.167 430.8 459.967 430.5 482.367 430.1C485.967 429.7 488.867 429.4 491.067 429.2C491.867 426.2 492.267 422.2 492.267 417.2C492.267 414 492.067 410.8 491.667 407.6C491.467 404.4 491.367 401.4 491.367 398.6C490.767 399.2 490.067 399.5 489.267 399.5C488.867 399.5 488.467 399.5 488.067 399.5C487.667 399.3 487.267 399.2 486.867 399.2C485.867 399.2 485.067 399.6 484.467 400.4C476.067 400.2 467.967 400.1 460.167 400.1C452.567 399.9 444.567 399.8 436.167 399.8H417.567C415.567 399.8 413.967 399.1 412.767 397.7L413.067 397.4L411.267 395.9C411.067 395.3 410.967 393.8 410.967 391.4V374.3C410.967 372.1 410.667 370.2 410.067 368.6C409.667 366.8 409.467 364.8 409.467 362.6C409.467 357.4 409.567 354.6 409.767 354.2C410.167 353.6 410.367 353.1 410.367 352.7C410.367 352.1 411.967 351.6 415.167 351.2C418.567 350.8 422.367 350.5 426.567 350.3C430.967 349.9 435.167 349.6 439.167 349.4C443.167 349 445.867 348.7 447.267 348.5C448.067 348.5 448.467 348.8 448.467 349.4H450.267C450.067 349 449.967 348.2 449.967 347C450.167 343 450.267 339.8 450.267 337.4C450.467 335 450.567 333.4 450.567 332.6C450.567 331.8 450.467 330.6 450.267 329C450.267 327.4 450.167 325.8 449.967 324.2C449.767 322.4 449.367 320.9 448.767 319.7C448.367 318.5 447.767 317.9 446.967 317.9C443.567 318.5 440.167 318.8 436.767 318.8C433.767 318.8 430.767 318.6 427.767 318.2C424.767 317.8 421.667 317.6 418.467 317.6C416.267 317.6 415.067 318.2 414.867 319.4C413.467 319.4 412.567 319 412.167 318.2C411.767 317.4 411.467 316.5 411.267 315.5L410.967 312.2C410.967 311 410.567 310.1 409.767 309.5L410.367 299.6C410.367 298 410.267 295.3 410.067 291.5C410.067 287.7 409.967 282.9 409.767 277.1C409.767 275.3 409.867 274.1 410.067 273.5L410.967 271.7H412.767C414.167 271.7 415.667 271.6 417.267 271.4C419.067 271.2 420.967 270.9 422.967 270.5H427.167C431.167 270.5 437.767 270.4 446.967 270.2C456.167 269.8 468.267 269.4 483.267 269C484.667 268.8 485.967 268.7 487.167 268.7C488.567 268.5 490.067 268.2 491.667 267.8L491.067 235.1L490.467 234.2C488.667 234.8 486.667 235.1 484.467 235.1C482.267 235.1 479.967 235 477.567 234.8C475.367 234.4 472.267 234.2 468.267 234.2C465.467 234.2 463.567 234.3 462.567 234.5C461.767 234.5 460.067 234.5 457.467 234.5C454.467 234.5 450.867 234.4 446.667 234.2C442.467 234 438.467 233.9 434.667 233.9C425.067 233.9 415.467 234.4 405.867 235.4C396.467 236.4 386.867 237.7 377.067 239.3L376.167 241.4L376.767 261.8C376.567 262.2 376.467 263.1 376.467 264.5C377.067 273.5 377.367 279.3 377.367 281.9V296V298.7C377.367 299.7 377.667 300.6 378.267 301.4C379.067 302.2 379.467 303.6 379.467 305.6C379.467 306.4 379.467 307.2 379.467 308C379.467 308.8 379.367 309.7 379.167 310.7C379.167 311.9 379.367 313.6 379.767 315.8C380.167 317.8 380.367 320.2 380.367 323C380.367 327.2 379.467 332.9 377.667 340.1V354.2C377.867 357.8 377.967 360.4 377.967 362C378.167 363.4 378.267 364.3 378.267 364.7C378.267 365.1 378.367 365.3 378.567 365.3C378.767 365.1 379.067 365.1 379.467 365.3C379.867 364.9 380.067 364.6 380.067 364.4C380.067 364 380.267 363.8 380.667 363.8H380.967C380.967 363.4 380.867 363.1 380.667 362.9C380.667 362.5 380.667 362.1 380.667 361.7C380.667 361.1 380.967 360.6 381.567 360.2C382.167 362 382.467 364.1 382.467 366.5C382.467 367.1 382.367 368 382.167 369.2C381.967 370.2 381.667 370.7 381.267 370.7C380.867 370.7 380.667 370.6 380.667 370.4C380.667 370.2 380.467 370.1 380.067 370.1L379.767 370.7C379.967 370.7 380.067 370.9 380.067 371.3C380.067 372.1 379.767 372.9 379.167 373.7C378.767 374.3 378.567 374.8 378.567 375.2L379.467 374.9C379.867 375.9 379.967 377.1 379.767 378.5C379.767 379.7 379.867 380.9 380.067 382.1C379.867 383.9 378.967 387.1 377.367 391.7V392.9C377.167 392.9 377.067 393 377.067 393.2C377.067 393.6 377.367 394.3 377.967 395.3C378.567 396.3 379.267 397.5 380.067 398.9C380.867 400.1 381.567 401.4 382.167 402.8C382.767 404.2 383.067 405.3 383.067 406.1C383.067 407.7 382.667 408.5 381.867 408.5C381.667 408.5 381.467 408.4 381.267 408.2C381.467 408.6 381.567 409.5 381.567 410.9V413.6C381.167 417.6 380.867 421.1 380.667 424.1C380.467 426.9 380.367 429.1 380.367 430.7C381.767 431.3 383.167 431.6 384.567 431.6C386.167 431.6 387.767 431.5 389.367 431.3C390.967 430.9 392.567 430.7 394.167 430.7H411.867C412.267 430.7 412.767 430.8 413.367 431C413.967 431.2 414.467 431.3 414.867 431.3C415.067 431.3 420.767 431.2 431.967 431Z" fill="#4C8630"/>
</svg>
