<svg width="78" height="74" viewBox="0 0 78 74" fill="none" xmlns="http://www.w3.org/2000/svg">
<path d="M14 23.577C14 25.9819 14.8504 28.2515 16.3692 30C17.9415 28.7646 19.7331 27.8428 21.6393 27.3061C22.3007 22.9118 24.3721 18.8795 27.5466 15.8495C27.6957 15.7074 27.8473 15.5687 28 15.4318C26.5644 14.5 24.9063 14 23.1719 14C18.1147 14 14 18.2961 14 23.577Z" fill="#E6C705"/>
<path d="M73.283 32.9029C72.9608 32.6614 72.726 32.3242 72.6136 31.9413C70.8881 26.0697 65.3418 21.9689 59.126 21.9689C57.9812 21.9689 56.8401 22.1057 55.735 22.3755C54.9724 22.5619 54.1722 22.2628 53.7266 21.6257C50.8256 17.4769 46.0449 15 40.9383 15C37.0551 15 33.3392 16.4195 30.4754 18.9968C27.6296 21.558 25.8611 25.0398 25.4962 28.8011C25.4332 29.4515 25.0273 30.0215 24.428 30.302C24.2413 30.3894 24.0533 30.4847 23.869 30.5848C23.7114 30.6705 23.5427 30.7336 23.3669 30.7722C20.7487 31.3476 18.3704 32.7961 16.6704 34.8514C14.9232 36.9633 14 39.5192 14 42.2432C14 48.7258 19.3878 54 26.0101 54H65.9899C72.6122 54 78 48.7258 78 42.2432C77.999 38.5543 76.2803 35.1499 73.283 32.9029Z" fill="#44C2E4"/>
<path d="M31.1265 74C31.308 74 31.4929 73.9737 31.6758 73.9181C32.6644 73.6176 33.2205 72.5804 32.9172 71.6009L30.6629 64.3122C30.36 63.3327 29.3125 62.7818 28.3242 63.0819C27.3356 63.3823 26.7795 64.4195 27.0828 65.3991L29.3371 72.6877C29.5838 73.4867 30.3251 74 31.1265 74Z" fill="#44C2E4"/>
<path d="M47.1265 74C47.3081 74 47.493 73.9737 47.6758 73.9181C48.6646 73.6176 49.2203 72.5804 48.9174 71.6009L46.6629 64.3122C46.36 63.3327 45.3129 62.7818 44.3242 63.0819C43.3354 63.3823 42.7797 64.4195 43.0826 65.3991L45.3371 72.6877C45.5838 73.4867 46.3251 74 47.1265 74Z" fill="#44C2E4"/>
<path d="M63.1264 74C63.308 74 63.4929 73.9737 63.6758 73.9181C64.6644 73.6176 65.2205 72.5804 64.9172 71.6009L62.6629 64.3122C62.36 63.3327 61.3125 62.7818 60.3241 63.0819C59.3354 63.3823 58.7798 64.4195 59.0826 65.3991L61.337 72.6877C61.5838 73.4867 62.325 74 63.1264 74Z" fill="#44C2E4"/>
<path d="M22 1.86975V7.13024C22 8.1628 22.6716 9 23.5 9C24.3284 9 25 8.1628 25 7.13024V1.86975C25 0.837195 24.3284 0 23.5 0C22.6716 0 22 0.837195 22 1.86975Z" fill="#E6C705"/>
<path d="M15.2401 11C15.5389 11 15.8415 10.922 16.1191 10.7582C16.9614 10.2603 17.2501 9.15742 16.7638 8.29536L14.2865 3.90188C13.8002 3.03951 12.7229 2.74395 11.8809 3.24183C11.0386 3.7397 10.7499 4.84261 11.2362 5.70467L13.7135 10.0981C14.0392 10.6766 14.6314 11 15.2401 11Z" fill="#E6C705"/>
<path d="M10.098 13.7136L5.70473 11.2362C4.84233 10.7499 3.73972 11.0386 3.24183 11.8808C2.74395 12.7231 3.03951 13.7999 3.90191 14.2864L8.29517 16.7638C8.57908 16.9238 8.88921 17 9.19513 17C9.81829 17 10.4243 16.6842 10.7584 16.1192C11.256 15.277 10.9604 14.2001 10.098 13.7136Z" fill="#E6C705"/>
<path d="M9 23.5C9 22.6716 8.16281 22 7.13025 22H1.86976C0.837196 22 0 22.6716 0 23.5C0 24.3284 0.837196 25 1.86976 25H7.13025C8.16281 25 9 24.3284 9 23.5Z" fill="#E6C705"/>
<path d="M10.0981 33.2863C10.9605 32.8 11.2561 31.7231 10.7582 30.8809C10.2603 30.0386 9.15733 29.7499 8.29524 30.2362L3.90192 32.7134C3.03951 33.1997 2.74394 34.2765 3.24184 35.1191C3.57592 35.6841 4.18195 36 4.80512 36C5.11105 36 5.42118 35.9238 5.70509 35.7638L10.0981 33.2863Z" fill="#E6C705"/>
<path d="M30.8809 10.7582C31.1581 10.922 31.461 11 31.7598 11C32.3684 11 32.9603 10.6766 33.2866 10.0981L35.7638 5.70467C36.2501 4.84229 35.9614 3.7397 35.1191 3.24183C34.2765 2.74395 33.2 3.03951 32.7134 3.90188L30.2362 8.29536C29.7499 9.15774 30.0386 10.2603 30.8809 10.7582Z" fill="#E6C705"/>
</svg>
