<svg width="61" height="57" viewBox="0 0 61 57" fill="none" xmlns="http://www.w3.org/2000/svg">
<path d="M56.505 16.9849C56.198 16.7558 55.9742 16.4359 55.867 16.0726C54.2224 10.5021 48.936 6.61158 43.0115 6.61158C41.92 6.61158 40.8327 6.74131 39.7794 6.99731C39.0532 7.17356 38.2898 6.89066 37.8652 6.28596C35.1001 2.34984 30.5434 0 25.6762 0C21.9746 0 18.4332 1.34643 15.7036 3.79151C12.9911 6.22141 11.3055 9.52467 10.9578 13.0931C10.8977 13.7101 10.5108 14.2509 9.93961 14.517C9.76168 14.6 9.58278 14.6901 9.40679 14.7854C9.25664 14.8667 9.09551 14.9265 8.92824 14.9632C6.43276 15.5091 4.16623 16.8833 2.54553 18.8332C0.880261 20.8369 0 23.2617 0 25.846C0 31.9965 5.1353 37 11.4473 37H49.5527C55.8647 37 61 31.9962 61 25.846C61 22.3463 59.3615 19.1164 56.505 16.9849Z" fill="#44C2E4"/>
<path d="M9.99996 46C9.1503 46 8.46153 46.6553 8.46153 47.4636V49.7188L5.94136 49.0691C5.1211 48.8575 4.27639 49.3187 4.05392 50.0988C3.83176 50.8792 4.31631 51.6828 5.13657 51.8945L7.56084 52.5194L6.09574 54.6677C5.63317 55.3459 5.83615 56.2523 6.54905 56.6921C6.80772 56.8519 7.09794 56.9282 7.38507 56.9282C7.8888 56.9282 8.38264 56.693 8.6772 56.2611L10.0225 54.2883L11.4802 56.3524C11.7772 56.7731 12.2633 57 12.7587 57C13.0536 57 13.3521 56.9194 13.6151 56.7513C14.3206 56.3006 14.5081 55.391 14.0344 54.7201L12.4743 52.5109L14.8636 51.8948C15.6836 51.6834 16.1684 50.8795 15.946 50.0991C15.7238 49.319 14.8794 48.858 14.0586 49.0694L11.5387 49.7191V47.4639C11.5384 46.6553 10.8496 46 9.99996 46Z" fill="#44C2E4"/>
<path d="M30.5001 46C29.7212 46 29.0898 46.6553 29.0898 47.4636V49.7188L26.7796 49.0691C26.0277 48.8575 25.2531 49.3187 25.0494 50.0988C24.8458 50.8792 25.2899 51.6828 26.0416 51.8945L28.2639 52.5194L26.9209 54.6677C26.4968 55.3459 26.6829 56.2523 27.3364 56.6921C27.5735 56.8519 27.8396 56.9282 28.1028 56.9282C28.5646 56.9282 29.0172 56.693 29.2873 56.2611L30.5205 54.2883L31.8567 56.3524C32.129 56.7731 32.5746 57 33.0287 57C33.299 57 33.5728 56.9194 33.8138 56.7513C34.4605 56.3006 34.6324 55.391 34.1982 54.7201L32.7681 52.5109L34.9583 51.8948C35.71 51.6834 36.1544 50.8795 35.9505 50.0991C35.7468 49.319 34.9728 48.858 34.2203 49.0694L31.9104 49.7191V47.4639C31.9104 46.6553 31.279 46 30.5001 46Z" fill="#44C2E4"/>
<path d="M50.9996 46C50.15 46 49.4612 46.6553 49.4612 47.4636V49.7188L46.9413 49.0691C46.1211 48.8575 45.2761 49.3187 45.0539 50.0988C44.8318 50.8792 45.3163 51.6828 46.1362 51.8945L48.5605 52.5194L47.0954 54.6677C46.6329 55.3459 46.8358 56.2523 47.5487 56.6921C47.8074 56.8519 48.0976 56.9282 48.3848 56.9282C48.8885 56.9282 49.3823 56.693 49.6769 56.2611L51.0222 54.2883L52.4799 56.3524C52.7769 56.7731 53.263 57 53.7584 57C54.0533 57 54.3518 56.9194 54.6148 56.7513C55.32 56.3006 55.5078 55.391 55.0341 54.7201L53.474 52.5109L55.8636 51.8948C56.6836 51.6834 57.1684 50.8795 56.946 50.0991C56.7238 49.319 55.8794 48.858 55.0585 49.0694L52.5387 49.7191V47.4639C52.5381 46.6553 51.8493 46 50.9996 46Z" fill="#44C2E4"/>
</svg>
