<svg width="817" height="733" viewBox="0 0 817 733" fill="none" xmlns="http://www.w3.org/2000/svg">
<path d="M774.021 785.02C927.387 631.654 927.387 382.999 774.021 229.633C620.655 76.2676 372 76.2676 218.634 229.633C65.2685 382.999 65.2685 631.654 218.634 785.02C372 938.386 620.655 938.386 774.021 785.02Z" fill="#FDC95A"/>
<path d="M172.452 327.438C277.397 137.624 522.706 78.0763 712.521 183.022C723.276 188.968 733.623 195.367 743.592 202.141C725.968 187.897 706.872 174.981 686.354 163.637C496.539 58.6918 257.59 127.493 152.645 317.307C53.6466 496.366 109.282 719.128 275.244 831.898C129.829 714.366 78.8505 496.735 172.452 327.438Z" fill="#FFED92"/>
<path d="M722.287 733.286C847.08 608.492 847.08 406.161 722.287 281.368C597.493 156.574 395.163 156.574 270.369 281.368C145.575 406.161 145.575 608.492 270.369 733.286C395.163 858.079 597.493 858.079 722.287 733.286Z" fill="#E9AD41"/>
<path d="M392.074 780.404C237.622 695.011 181.639 500.577 267.033 346.126C313.688 261.739 392.894 206.75 480.344 188.149C373.673 193.595 272.157 252.356 216.674 352.709C131.281 507.16 187.264 701.594 341.715 786.987C411.781 825.726 490.073 835.367 562.683 819.923C505.177 822.858 446.174 810.315 392.074 780.404Z" fill="#D48A27"/>
<path d="M696.937 414.126C694.914 393.917 689.996 374.599 679.379 357.044C672.406 345.514 663.736 335.689 653.756 327.097C657.139 320.604 660.521 314.111 663.904 307.618C665.055 305.408 666.206 303.199 667.357 300.99C671.482 293.07 673.138 284.033 670.723 275.262C668.59 267.518 662.601 259.125 655.379 255.308C647.63 251.214 638.243 249.162 629.652 251.943C621.601 254.548 613.724 259.557 609.698 267.287C604.499 277.266 599.3 287.246 594.101 297.225C579.959 294.011 565.017 292.559 550.601 293.714C541.414 294.45 532.114 295.691 523.158 297.947C514.345 300.166 505.923 303.656 497.668 307.414C491.877 310.05 486.341 313.256 481.218 317.032C473.926 322.408 466.779 327.951 460.844 334.831C448.598 349.029 439.336 365.397 434.845 383.724C429.743 404.539 429.05 428.028 435.026 448.731C440.859 468.94 453.124 487.018 468.965 500.736C482.844 512.753 498.357 522.381 513.368 532.842C515.359 534.229 517.295 535.693 519.246 537.136C523.61 540.743 527.721 544.632 531.427 548.91C532.763 550.912 533.992 552.978 535.097 555.116C536.19 558.39 537.021 561.735 537.654 565.131C538.126 570.397 538.165 575.675 537.74 580.943C536.915 585.186 535.766 589.346 534.308 593.415C532.433 597.244 530.281 600.918 527.86 604.427C524.754 608.052 521.383 611.423 517.757 614.527C513.036 617.846 508.054 620.746 502.847 623.23C496.1 625.761 489.143 627.627 482.042 628.857C475.742 629.447 469.42 629.531 463.115 629.007C456.559 627.798 450.149 625.975 443.907 623.627C436.44 620.154 429.34 615.982 422.653 611.175C416.663 606.201 411.137 600.719 406.155 594.735C402.64 589.76 399.544 584.521 396.924 579.021C395.337 574.627 394.106 570.127 393.228 565.537C392.954 561.667 392.973 557.793 393.262 553.923C393.468 552.869 393.683 551.817 393.928 550.769C395.952 542.133 395.105 532.804 390.563 525.042C386.51 518.116 378.568 511.511 370.609 509.698C362.061 507.752 352.468 508.172 344.881 513.064C337.725 517.677 331.534 524.496 329.538 533.017C324.523 554.416 325.127 577.651 333.063 598.3C337.017 608.586 341.543 618.553 347.848 627.613C354.167 636.692 361.201 645.465 369.276 653.058C375.241 658.666 381.687 663.869 388.489 668.608C384.075 677.082 379.66 685.557 375.245 694.032C374.094 696.241 372.943 698.451 371.792 700.66C367.666 708.58 366.01 717.616 368.426 726.388C370.559 734.133 376.547 742.526 383.77 746.342C391.519 750.436 400.906 752.488 409.498 749.708C417.548 747.102 425.425 742.094 429.452 734.364C436.386 721.053 443.321 707.741 450.255 694.43C460.943 696.206 471.831 696.701 482.721 695.617C504.522 693.447 525.375 687.949 544.432 676.787C562.08 666.451 577.259 651.818 588.007 634.404C598.938 616.692 604.587 595.597 604.872 574.848C605.022 563.855 603.558 552.475 600.859 541.839C599.768 537.536 598.083 533.531 596.36 529.446C594.641 525.373 592.951 521.385 590.654 517.603C574.718 491.377 547.994 476.458 523.638 459.27C522.197 458.253 520.793 457.185 519.374 456.137C514.266 451.961 509.468 447.434 505.187 442.414C503.486 439.884 501.945 437.255 500.573 434.532C499.514 431.463 498.661 428.334 498.017 425.152C497.508 419.131 497.553 413.058 498.1 407.038C499.011 402.064 500.311 397.18 502.031 392.426C503.779 388.864 505.771 385.434 508.015 382.162C510.691 379.062 513.582 376.165 516.681 373.489C520.804 370.613 525.151 368.087 529.682 365.908C535.857 363.603 542.224 361.885 548.715 360.731C556.309 360.008 563.943 360.017 571.536 360.744C578.748 362.006 585.82 363.922 592.671 366.507C598.064 369.065 603.224 372.068 608.102 375.509C611.844 378.705 615.325 382.182 618.524 385.923C621.218 389.8 623.607 393.869 625.669 398.116C627.659 403.529 629.156 409.096 630.174 414.771C630.111 419.122 631.043 423.201 633.034 426.991C634.38 431.131 636.682 434.712 639.937 437.736C645.729 443.527 655.23 447.888 663.546 447.515C672.182 447.128 681.137 444.292 687.155 437.736C692.803 431.585 697.804 422.795 696.937 414.126Z" fill="#FFDA77"/>
<path d="M881.905 331.996C879.657 328.249 877.339 324.539 874.961 320.863C874.819 320.643 874.673 320.426 874.531 320.207C872.237 316.678 869.889 313.181 867.478 309.721C867.398 309.606 867.319 309.49 867.238 309.374C862.138 302.072 856.778 294.926 851.162 287.951L802.161 260.859C813.464 274.894 823.744 289.614 832.93 304.918L881.905 331.996Z" fill="#A65612"/>
</svg>
