<svg width="80" height="80" viewBox="0 0 80 80" fill="none" xmlns="http://www.w3.org/2000/svg">
<path d="M43.7331 59.5434C54.5281 57.4747 61.6023 47.0466 59.5336 36.2515C57.465 25.4564 47.0368 18.3823 36.2418 20.451C25.4467 22.5196 18.3725 32.9477 20.4412 43.7428C22.5099 54.5379 32.938 61.612 43.7331 59.5434Z" fill="#E6C705"/>
<path d="M38 10.9152C38 12.0665 38.8955 13 40 13C41.1045 13 42 12.0665 42 10.9152V2.08474C42 0.933444 41.1045 0 40 0C38.8955 0 38 0.933444 38 2.08474V10.9152Z" fill="#E6C705"/>
<path d="M38 69.0847V77.9153C38 79.0666 38.8955 80 40 80C41.1045 80 42 79.0666 42 77.9153V69.0847C42 67.9334 41.1045 67 40 67C38.8955 67.0004 38 67.9338 38 69.0847Z" fill="#E6C705"/>
<path d="M25.8161 17C26.1869 17 26.5628 16.9084 26.9069 16.7161C27.9521 16.1316 28.3103 14.8368 27.7069 13.8243L23.0782 6.05867C22.4748 5.04621 21.138 4.6996 20.0931 5.28374C19.0479 5.86827 18.6897 7.16312 19.2931 8.1752L23.9218 15.9408C24.3263 16.6203 25.0604 17 25.8161 17Z" fill="#E6C705"/>
<path d="M53.0931 63.2839C52.0479 63.8685 51.6897 65.1633 52.2931 66.1754L56.9216 73.9412C57.3265 74.6203 58.0609 75 58.8162 75C59.187 75 59.5628 74.9084 59.9069 74.7161C60.9521 74.1316 61.3103 72.8367 60.7069 71.8242L56.0784 64.0585C55.475 63.0464 54.1383 62.6994 53.0931 63.2839Z" fill="#E6C705"/>
<path d="M5.28391 20.0928C4.6994 21.1381 5.04638 22.4748 6.05883 23.0783L13.8243 27.7069C14.1576 27.9054 14.5217 28 14.8809 28C15.6121 28 16.3239 27.608 16.7161 26.9069C17.3006 25.8616 16.9536 24.5249 15.9412 23.9218L8.17569 19.2932C7.16324 18.6898 5.86842 19.0476 5.28391 20.0928Z" fill="#E6C705"/>
<path d="M73.9412 56.9215L66.1757 52.2929C65.1636 51.6899 63.8688 52.0477 63.2839 53.0929C62.6994 54.1381 63.0464 55.4745 64.0588 56.0783L71.8243 60.7069C72.1576 60.9054 72.5217 61 72.8809 61C73.6124 61 74.3239 60.608 74.7161 59.9069C75.3006 58.8613 74.9536 57.525 73.9412 56.9215Z" fill="#E6C705"/>
<path d="M13 40C13 38.8955 12.0665 38 10.9152 38H2.08477C0.933467 38 0 38.8955 0 40C0 41.1045 0.933467 42 2.08477 42H10.9152C12.0665 42 13 41.1045 13 40Z" fill="#E6C705"/>
<path d="M77.9153 38H69.0847C67.9334 38 67 38.8955 67 40C67 41.1045 67.9334 42 69.0847 42H77.9153C79.0666 42 80 41.1045 80 40C80 38.8955 79.0666 38 77.9153 38Z" fill="#E6C705"/>
<path d="M13.8243 52.2932L6.05883 56.9216C5.04638 57.5251 4.6994 58.8617 5.28391 59.9069C5.67612 60.608 6.38756 61 7.11915 61C7.47829 61 7.84239 60.9054 8.17569 60.7069L15.9412 56.0785C16.9536 55.4751 17.3006 54.1383 16.7161 53.0931C16.1312 52.0476 14.8364 51.6898 13.8243 52.2932Z" fill="#E6C705"/>
<path d="M71.8243 19.2932L64.0588 23.9218C63.0464 24.5253 62.6994 25.862 63.2839 26.9069C63.6761 27.608 64.3876 28 65.1192 28C65.4783 28 65.8424 27.9054 66.1757 27.7069L73.9412 23.0783C74.9536 22.4748 75.3006 21.1381 74.7161 20.0928C74.1312 19.0476 72.8364 18.6898 71.8243 19.2932Z" fill="#E6C705"/>
<path d="M23.9216 64.0586L19.2931 71.8242C18.6897 72.8367 19.0479 74.1316 20.0931 74.7161C20.4372 74.9084 20.813 75 21.1838 75C21.9387 75 22.6735 74.6203 23.0784 73.9412L27.7069 66.1755C28.3103 65.163 27.9521 63.8682 26.9069 63.284C25.8617 62.6995 24.525 63.0461 23.9216 64.0586Z" fill="#E6C705"/>
<path d="M53.0928 16.7161C53.4369 16.9084 53.8128 17 54.1836 17C54.9389 17 55.6733 16.6203 56.0782 15.9412L60.7069 8.17528C61.3103 7.16278 60.9521 5.86829 59.9069 5.28375C58.862 4.69959 57.5249 5.04621 56.9218 6.05871L52.2932 13.8246C51.6898 14.8367 52.0476 16.1312 53.0928 16.7161Z" fill="#E6C705"/>
</svg>
