<svg width="190" height="172" viewBox="0 0 190 172" fill="none" xmlns="http://www.w3.org/2000/svg">
<path d="M57.009 105.536L81.7931 32.5801H113.099L94.837 81.8491H132.665L109.61 117.007H153.84C173.387 117.007 189.29 101.194 189.29 81.7581C189.29 70.6981 184.216 60.4911 175.37 53.7551C174.419 53.0311 173.726 52.0201 173.394 50.8721C168.3 33.2681 151.929 20.9721 133.582 20.9721C130.202 20.9721 126.835 21.3821 123.573 22.1911C121.322 22.7481 118.96 21.8541 117.645 19.9431C109.083 7.50512 94.9721 0.078125 79.8981 0.078125C68.4351 0.078125 57.467 4.33412 49.014 12.0601C40.614 19.7391 35.3941 30.1781 34.3171 41.4551C34.1311 43.4061 32.9331 45.1151 31.1631 45.9561C30.6161 46.2161 30.061 46.5011 29.514 46.8031C29.049 47.0601 28.55 47.2491 28.032 47.3651C20.304 49.0901 13.2841 53.4331 8.26605 59.5951C3.10905 65.9271 0.383057 73.5911 0.383057 81.7571C0.383057 101.193 16.2861 117.006 35.8331 117.006H87.3951L90.2711 105.535L57.009 105.536Z" fill="#44C2E4"/>
<path d="M94.837 81.8491L113.098 32.5801H81.7931L57.009 105.536H90.2711L87.3951 117.007L84.6021 128.146L73.6401 171.859L102.305 128.146L109.61 117.007L132.664 81.8491H94.837Z" fill="#E6C705"/>
</svg>
