<svg width="70" height="72" viewBox="0 0 70 72" fill="none" xmlns="http://www.w3.org/2000/svg">
<path d="M70 30.0373C70 25.97 68.1198 22.2167 64.8415 19.7392C64.4891 19.473 64.2323 19.1012 64.1093 18.679C62.222 12.2052 56.1556 7.68372 49.357 7.68372C48.1049 7.68372 46.8569 7.8345 45.6481 8.13201C44.814 8.33684 43.9388 8.00807 43.4515 7.3053C40.2784 2.73089 35.0495 0 29.4641 0C25.2167 0 21.1525 1.56476 18.0202 4.40635C14.9075 7.23028 12.9732 11.0692 12.5741 15.2163C12.5052 15.9334 12.0616 16.5619 11.4057 16.8712C11.2012 16.9679 10.9955 17.0727 10.7943 17.183C10.622 17.2775 10.4371 17.347 10.2452 17.3897C7.38149 18.024 4.78019 19.6212 2.92073 21.8872C1.00977 24.2158 0 27.0339 0 30.0373C0 37.1852 5.89259 43 13.1359 43H56.8641C64.107 43 70 37.1848 70 30.0373Z" fill="#3591A6"/>
<path d="M18.8142 62C19.026 62 19.2417 61.9709 19.455 61.9106C20.6085 61.5832 21.2572 60.4513 20.9034 59.3826L18.2733 51.4314C17.92 50.3627 16.6979 49.7617 15.5448 50.0895C14.3914 50.4169 13.743 51.5488 14.0964 52.6174L16.7265 60.5687C17.0148 61.44 17.8796 62 18.8142 62Z" fill="#44C2E4"/>
<path d="M29.8142 72C30.026 72 30.2417 71.9713 30.4551 71.9106C31.6085 71.5832 32.2572 70.4513 31.9034 69.3826L29.2734 61.4313C28.92 60.3626 27.6988 59.7619 26.5449 60.0893C25.3915 60.4167 24.7428 61.5486 25.0966 62.6173L27.7266 70.5687C28.0145 71.4397 28.8796 72 29.8142 72Z" fill="#44C2E4"/>
<path d="M44.3242 59.0895C43.3356 59.4169 42.7795 60.5487 43.0828 61.6174L45.3371 69.5687C45.5842 70.44 46.3254 71 47.1265 71C47.308 71 47.4929 70.9709 47.6758 70.9106C48.6644 70.5832 49.2205 69.4513 48.9172 68.3826L46.6629 60.4314C46.36 59.3627 45.3125 58.7617 44.3242 59.0895Z" fill="#44C2E4"/>
<path d="M35.8143 62C36.0261 62 36.2418 61.9709 36.4552 61.9106C37.6087 61.5832 38.257 60.4513 37.9036 59.3826L35.2735 51.4314C34.9197 50.3627 33.698 49.7617 32.545 50.0895C31.3915 50.4169 30.7428 51.5488 31.0966 52.6174L33.7267 60.5687C34.0149 61.44 34.8797 62 35.8143 62Z" fill="#44C2E4"/>
<path d="M53.1265 62C53.308 62 53.4929 61.9709 53.6758 61.9106C54.6644 61.5832 55.2205 60.4513 54.9172 59.3826L52.6629 51.4314C52.36 50.3627 51.3129 49.7617 50.3242 50.0895C49.3356 50.4169 48.7795 51.5488 49.0828 52.6174L51.3371 60.5687C51.5838 61.44 52.3254 62 53.1265 62Z" fill="#44C2E4"/>
</svg>
