<svg width="190" height="118" viewBox="0 0 190 118" fill="none" xmlns="http://www.w3.org/2000/svg">
<path d="M36.102 117.027H154.109C173.656 117.027 189.559 101.214 189.559 81.7781C189.559 70.7181 184.485 60.5121 175.638 53.7751C174.687 53.0511 173.994 52.0401 173.662 50.8921C168.569 33.2881 152.198 20.9931 133.851 20.9931C130.472 20.9931 127.104 21.4031 123.842 22.2121C121.591 22.7701 119.229 21.8751 117.914 19.9641C109.352 7.52612 95.241 0.0991211 80.167 0.0991211C68.705 0.0991211 57.737 4.35512 49.284 12.0821C40.884 19.7611 35.664 30.2001 34.587 41.4771C34.4 43.4271 33.203 45.1361 31.434 45.9771C30.882 46.2401 30.327 46.5251 29.785 46.8251C29.32 47.0821 28.821 47.2711 28.303 47.3871C20.575 49.1121 13.555 53.4551 8.53703 59.6171C3.38003 65.9491 0.65503 73.6121 0.65503 81.7791C0.65203 101.214 16.555 117.027 36.102 117.027Z" fill="#44C2E4"/>
</svg>
