<svg width="232" height="162" viewBox="0 0 232 162" fill="none" xmlns="http://www.w3.org/2000/svg">
<path d="M217.388 97.7741C216.437 97.0501 215.744 96.0392 215.412 94.8912C210.319 77.2872 193.948 64.9921 175.601 64.9921C172.222 64.9921 168.854 65.4021 165.592 66.2111C163.339 66.7691 160.979 65.8741 159.664 63.9631C151.101 51.5251 136.99 44.0981 121.917 44.0981C110.455 44.0981 99.4871 48.3541 91.0341 56.0811C82.6341 63.7601 77.4141 74.1991 76.3371 85.4761C76.1511 87.4261 74.9531 89.1351 73.1841 89.9761C72.6331 90.2381 72.0781 90.5232 71.5341 90.8242C71.0691 91.0812 70.5711 91.2701 70.0521 91.3861C62.3241 93.1111 55.3041 97.4541 50.2861 103.616C45.1291 109.948 42.4041 117.611 42.4041 125.778C42.4041 145.215 58.3071 161.027 77.8541 161.027H195.861C215.408 161.027 231.311 145.214 231.311 125.778C231.308 114.718 226.235 104.511 217.388 97.7741Z" fill="#44C2E4"/>
<path d="M42.61 70.208C42.61 77.163 45.178 83.727 49.764 88.784C54.512 85.211 59.922 82.545 65.679 80.993C67.676 68.284 73.931 56.623 83.517 47.859C83.967 47.448 84.425 47.047 84.886 46.651C80.551 43.956 75.544 42.51 70.307 42.51C55.035 42.51 42.61 54.935 42.61 70.208Z" fill="#E6C705"/>
<path d="M70.308 27.6269C73.384 27.6269 75.878 25.1329 75.878 22.0569V6.38689C75.878 3.31089 73.384 0.816895 70.308 0.816895C67.232 0.816895 64.738 3.31089 64.738 6.38689V22.0579C64.738 25.1329 67.232 27.6269 70.308 27.6269Z" fill="#E6C705"/>
<path d="M41.409 31.293C42.441 33.08 44.313 34.079 46.238 34.079C47.183 34.079 48.14 33.838 49.018 33.332C51.682 31.794 52.595 28.388 51.057 25.724L43.222 12.152C41.684 9.48801 38.277 8.575 35.614 10.113C32.95 11.651 32.037 15.057 33.575 17.722L41.409 31.293Z" fill="#E6C705"/>
<path d="M12.252 43.1211L25.823 50.9571C26.7 51.4641 27.658 51.7041 28.603 51.7041C30.528 51.7041 32.4 50.7051 33.432 48.9181C34.97 46.2541 34.058 42.8481 31.394 41.3101L17.823 33.4741C15.159 31.9361 11.753 32.8481 10.215 35.5131C8.67498 38.1761 9.588 41.5831 12.252 43.1211Z" fill="#E6C705"/>
<path d="M6.48602 75.7779H22.157C25.233 75.7779 27.727 73.2839 27.727 70.2079C27.727 67.1319 25.233 64.6379 22.157 64.6379H6.48602C3.41002 64.6379 0.916016 67.1319 0.916016 70.2079C0.916016 73.2839 3.41002 75.7779 6.48602 75.7779Z" fill="#E6C705"/>
<path d="M33.432 91.498C31.894 88.834 28.487 87.921 25.824 89.459L12.253 97.295C9.58896 98.833 8.67596 102.24 10.214 104.903C11.246 106.69 13.118 107.689 15.043 107.689C15.988 107.689 16.946 107.448 17.823 106.942L31.394 99.106C34.057 97.569 34.97 94.162 33.432 91.498Z" fill="#E6C705"/>
<path d="M91.5981 33.332C92.4751 33.838 93.433 34.079 94.378 34.079C96.3031 34.079 98.1751 33.08 99.2071 31.293L107.042 17.721C108.58 15.057 107.667 11.651 105.003 10.112C102.338 8.57403 98.9331 9.48703 97.3941 12.151L89.559 25.723C88.021 28.388 88.9341 31.794 91.5981 33.332Z" fill="#E6C705"/>
</svg>
