<svg width="1728" height="1117" viewBox="0 0 1728 1117" fill="none" xmlns="http://www.w3.org/2000/svg">
<path d="M0 0L79.1966 40.3992C170.335 86.89 277.02 92.1252 372.272 54.7811L381.821 51.0372C465.09 18.3912 557.987 20.5899 639.618 57.1387C720.224 93.2283 811.859 95.8432 894.391 64.409L904.773 60.4548C1005.28 22.1743 1117.64 30.8275 1211.1 84.0463L1219.07 88.5848C1342.35 158.785 1494.61 153.827 1613.06 75.7549L1728 0V1117L1718.24 1104.13C1666.28 1035.61 1570.18 1018.94 1498.18 1065.95C1449.72 1097.6 1388.16 1101.31 1336.24 1075.74L1269.02 1042.62C1192.54 1004.94 1102.5 1006.93 1027.76 1047.96L1021.93 1051.16C947.236 1092.17 856.764 1092.17 782.066 1051.16L767.518 1043.17C699.052 1005.59 615.8 1007.07 548.721 1047.08L537.875 1053.55C472.708 1092.42 391.151 1091.03 327.344 1049.97C263.179 1008.68 181.101 1007.53 115.801 1047L0 1117V0Z" fill="#4C8630"/>
</svg>
